<?xml version="1.0" encoding="utf-8"?>
<!-- Generator: Adobe Illustrator 19.0.1, SVG Export Plug-In . SVG Version: 6.00 Build 0)  -->
<svg version="1.1" xmlns="http://www.w3.org/2000/svg" xmlns:xlink="http://www.w3.org/1999/xlink" x="0px" y="0px"
	 viewBox="0 0 142.4 68.2" style="enable-background:new 0 0 142.4 68.2;" xml:space="preserve">
<style type="text/css">
	.st0{fill:#161342;}
	.st1{fill:#28235D;}
	.st2{fill:#443B96;}
	.st3{fill:#9289BE;}
	.st4{fill:#B0A9D2;}
	.st5{fill:#E25CA1;}
	.st6{fill:#EAA2C7;}
	.st7{fill:#53B0A6;}
	.st8{fill:#4EBFAB;}
	.st9{fill:#FFFFFF;}
	.st10{fill:#4FC0AC;}
	.st11{fill:url(#SVGID_1_);}
	.st12{fill:url(#SVGID_2_);}
	.st13{fill:url(#);}
	.st14{fill:url(#SVGID_3_);}
	.st15{fill:url(#SVGID_4_);}
	.st16{fill:url(#SVGID_5_);}
	.st17{fill:none;stroke:#FFFFFF;stroke-width:3;stroke-miterlimit:10;}
	.st18{fill:url(#SVGID_6_);}
	.st19{fill:url(#SVGID_7_);}
	.st20{fill:url(#SVGID_8_);}
	.st21{fill:url(#SVGID_9_);}
	.st22{clip-path:url(#SVGID_11_);}
	.st23{clip-path:url(#SVGID_13_);}
	.st24{fill:none;stroke:#FFFFFF;stroke-width:0.3;stroke-linecap:square;stroke-linejoin:bevel;}
	.st25{clip-path:url(#SVGID_15_);}
	.st26{clip-path:url(#SVGID_17_);}
	.st27{clip-path:url(#SVGID_19_);}
	.st28{fill:url(#SVGID_20_);}
	.st29{clip-path:url(#SVGID_22_);}
	.st30{clip-path:url(#SVGID_24_);}
	.st31{clip-path:url(#SVGID_26_);}
	.st32{clip-path:url(#SVGID_28_);}
	.st33{clip-path:url(#SVGID_30_);}
	.st34{clip-path:url(#SVGID_32_);}
	.st35{clip-path:url(#SVGID_34_);fill:none;stroke:#FFFFFF;stroke-width:0.3;stroke-linecap:square;stroke-linejoin:bevel;}
	.st36{clip-path:url(#SVGID_36_);}
	.st37{clip-path:url(#SVGID_38_);fill:none;stroke:#FFFFFF;stroke-width:0.3;stroke-linecap:square;stroke-linejoin:bevel;}
	.st38{clip-path:url(#SVGID_40_);}
	.st39{clip-path:url(#SVGID_42_);fill:none;stroke:#FFFFFF;stroke-width:0.3;stroke-linecap:square;stroke-linejoin:bevel;}
	.st40{clip-path:url(#SVGID_44_);fill:none;stroke:#FFFFFF;stroke-width:0.3;stroke-linecap:square;stroke-linejoin:bevel;}
	.st41{clip-path:url(#SVGID_46_);}
	.st42{clip-path:url(#SVGID_48_);fill:none;stroke:#FFFFFF;stroke-width:0.3;stroke-linecap:square;stroke-linejoin:bevel;}
	.st43{clip-path:url(#SVGID_50_);}
	.st44{clip-path:url(#SVGID_52_);fill:none;stroke:#FFFFFF;stroke-width:0.3;stroke-linecap:square;stroke-linejoin:bevel;}
	.st45{clip-path:url(#SVGID_54_);}
	.st46{clip-path:url(#SVGID_56_);fill:none;stroke:#FFFFFF;stroke-width:0.3;stroke-linecap:square;stroke-linejoin:bevel;}
	.st47{clip-path:url(#SVGID_58_);}
	.st48{clip-path:url(#SVGID_60_);fill:none;stroke:#FFFFFF;stroke-width:0.3;stroke-linecap:square;stroke-linejoin:bevel;}
	.st49{clip-path:url(#SVGID_62_);fill:none;stroke:#FFFFFF;stroke-width:0.3;stroke-linecap:square;stroke-linejoin:bevel;}
	.st50{clip-path:url(#SVGID_64_);}
	.st51{clip-path:url(#SVGID_66_);fill:none;stroke:#FFFFFF;stroke-width:0.3;stroke-linecap:square;stroke-linejoin:bevel;}
	.st52{clip-path:url(#SVGID_68_);fill:none;stroke:#FFFFFF;stroke-width:0.3;stroke-linecap:square;stroke-linejoin:bevel;}
	.st53{clip-path:url(#SVGID_70_);}
	.st54{clip-path:url(#SVGID_72_);fill:none;stroke:#FFFFFF;stroke-width:0.3;stroke-linecap:square;stroke-linejoin:bevel;}
	.st55{clip-path:url(#SVGID_74_);}
	.st56{clip-path:url(#SVGID_76_);fill:none;stroke:#FFFFFF;stroke-width:0.3;stroke-linecap:square;stroke-linejoin:bevel;}
	.st57{clip-path:url(#SVGID_78_);fill:none;stroke:#FFFFFF;stroke-width:0.3;stroke-linecap:square;stroke-linejoin:bevel;}
	.st58{clip-path:url(#SVGID_80_);}
	.st59{clip-path:url(#SVGID_82_);fill:none;stroke:#FFFFFF;stroke-width:0.3;stroke-linecap:square;stroke-linejoin:bevel;}
	.st60{clip-path:url(#SVGID_84_);fill:none;stroke:#FFFFFF;stroke-width:0.3;stroke-linecap:square;stroke-linejoin:bevel;}
	.st61{clip-path:url(#SVGID_86_);}
	.st62{clip-path:url(#SVGID_88_);fill:none;stroke:#FFFFFF;stroke-width:0.3;stroke-linecap:square;stroke-linejoin:bevel;}
	.st63{clip-path:url(#SVGID_90_);fill:none;stroke:#FFFFFF;stroke-width:0.3;stroke-linecap:square;stroke-linejoin:bevel;}
	.st64{clip-path:url(#SVGID_92_);}
	.st65{clip-path:url(#SVGID_94_);fill:none;stroke:#FFFFFF;stroke-width:0.3;stroke-linecap:square;stroke-linejoin:bevel;}
	.st66{clip-path:url(#SVGID_96_);}
	.st67{clip-path:url(#SVGID_98_);fill:none;stroke:#FFFFFF;stroke-width:0.3;stroke-linecap:square;stroke-linejoin:bevel;}
	.st68{clip-path:url(#SVGID_100_);}
	.st69{clip-path:url(#SVGID_102_);fill:none;stroke:#FFFFFF;stroke-width:0.3;stroke-linecap:square;stroke-linejoin:bevel;}
	.st70{clip-path:url(#SVGID_104_);fill:none;stroke:#FFFFFF;stroke-width:0.3;stroke-linecap:square;stroke-linejoin:bevel;}
	.st71{fill:url(#SVGID_105_);}
	.st72{fill:url(#SVGID_106_);}
	.st73{fill:url(#SVGID_107_);}
	.st74{fill:url(#SVGID_108_);}
	.st75{fill:url(#SVGID_109_);}
	.st76{fill:url(#SVGID_110_);}
	.st77{fill:url(#SVGID_111_);}
	.st78{fill:url(#SVGID_112_);}
	.st79{fill:url(#SVGID_113_);}
	.st80{fill:url(#SVGID_114_);}
	.st81{fill:url(#SVGID_115_);}
	.st82{fill:url(#SVGID_116_);}
	.st83{fill:url(#SVGID_117_);}
	.st84{fill:url(#SVGID_118_);}
	.st85{opacity:0;fill:none;stroke:#FFFFFF;stroke-width:3;stroke-miterlimit:10;}
	.st86{fill:none;stroke:#28235D;stroke-width:3;stroke-miterlimit:10;}
	.st87{fill:#EAA2C7;stroke:#28235D;stroke-width:3;stroke-miterlimit:10;}
	.st88{fill:#28235D;stroke:#28235D;stroke-miterlimit:10;}
	.st89{fill:none;stroke:#FFFFFF;stroke-width:12;stroke-linejoin:bevel;stroke-miterlimit:10;}
	.st90{fill:#EAA2C7;stroke:#FFFFFF;stroke-width:7;stroke-linejoin:bevel;stroke-miterlimit:10;}
	.st91{clip-path:url(#SVGID_120_);}
	.st92{clip-path:url(#SVGID_122_);fill:url(#);}
	.st93{clip-path:url(#SVGID_124_);}
	.st94{clip-path:url(#SVGID_126_);fill:url(#);}
	.st95{clip-path:url(#SVGID_128_);}
	.st96{clip-path:url(#SVGID_130_);fill:none;stroke:#FFFFFF;stroke-width:0.3;stroke-linecap:square;stroke-linejoin:bevel;}
	.st97{clip-path:url(#SVGID_132_);fill:none;stroke:#FFFFFF;stroke-width:0.3;stroke-linecap:square;stroke-linejoin:bevel;}
	.st98{clip-path:url(#SVGID_134_);}
	.st99{clip-path:url(#SVGID_136_);fill:url(#);}
	.st100{clip-path:url(#SVGID_138_);}
	.st101{clip-path:url(#SVGID_140_);fill:none;stroke:#FFFFFF;stroke-width:0.3;stroke-linecap:square;stroke-linejoin:bevel;}
	.st102{clip-path:url(#SVGID_142_);}
	.st103{clip-path:url(#SVGID_144_);fill:none;stroke:#FFFFFF;stroke-width:0.3;stroke-linecap:square;stroke-linejoin:bevel;}
	.st104{clip-path:url(#SVGID_146_);}
	.st105{clip-path:url(#SVGID_148_);fill:url(#);}
	.st106{clip-path:url(#SVGID_150_);fill:url(#);}
	.st107{clip-path:url(#SVGID_152_);}
	.st108{clip-path:url(#SVGID_154_);fill:url(#);}
	.st109{clip-path:url(#SVGID_156_);fill:url(#);}
	.st110{clip-path:url(#SVGID_158_);}
	.st111{clip-path:url(#SVGID_160_);fill:url(#);}
	.st112{clip-path:url(#SVGID_162_);}
	.st113{clip-path:url(#SVGID_164_);fill:url(#);}
	.st114{clip-path:url(#SVGID_166_);fill:url(#);}
	.st115{clip-path:url(#SVGID_168_);}
	.st116{clip-path:url(#SVGID_170_);fill:url(#);}
	.st117{clip-path:url(#SVGID_172_);fill:url(#);}
	.st118{clip-path:url(#SVGID_174_);}
	.st119{clip-path:url(#SVGID_176_);fill:url(#);}
	.st120{clip-path:url(#SVGID_178_);fill:url(#);}
	.st121{clip-path:url(#SVGID_180_);}
	.st122{clip-path:url(#SVGID_182_);fill:url(#);}
	.st123{clip-path:url(#SVGID_184_);}
	.st124{clip-path:url(#SVGID_186_);fill:url(#);}
	.st125{clip-path:url(#SVGID_188_);}
	.st126{clip-path:url(#SVGID_190_);fill:url(#);}
	.st127{clip-path:url(#SVGID_192_);fill:url(#);}
	.st128{fill:#B0A9D2;stroke:#FFFFFF;stroke-width:7;stroke-linejoin:bevel;stroke-miterlimit:10;}
	.st129{fill:none;stroke:#FFFFFF;stroke-width:7;stroke-linejoin:bevel;stroke-miterlimit:10;}
	.st130{display:none;}
	.st131{display:inline;}
	.st132{fill:url(#SVGID_193_);}
	.st133{fill:url(#SVGID_194_);}
	.st134{fill:url(#SVGID_195_);}
	.st135{fill:url(#SVGID_196_);}
	.st136{clip-path:url(#SVGID_198_);}
	.st137{clip-path:url(#SVGID_200_);}
	.st138{clip-path:url(#SVGID_202_);}
	.st139{clip-path:url(#SVGID_204_);}
	.st140{clip-path:url(#SVGID_206_);}
	.st141{fill:url(#SVGID_207_);}
	.st142{clip-path:url(#SVGID_209_);}
	.st143{clip-path:url(#SVGID_211_);}
	.st144{clip-path:url(#SVGID_213_);}
	.st145{clip-path:url(#SVGID_215_);}
	.st146{clip-path:url(#SVGID_217_);}
	.st147{clip-path:url(#SVGID_219_);}
	.st148{clip-path:url(#SVGID_221_);fill:none;stroke:#FFFFFF;stroke-width:0.3;stroke-linecap:square;stroke-linejoin:bevel;}
	.st149{clip-path:url(#SVGID_223_);}
	.st150{clip-path:url(#SVGID_225_);fill:none;stroke:#FFFFFF;stroke-width:0.3;stroke-linecap:square;stroke-linejoin:bevel;}
	.st151{clip-path:url(#SVGID_227_);}
	.st152{clip-path:url(#SVGID_229_);fill:none;stroke:#FFFFFF;stroke-width:0.3;stroke-linecap:square;stroke-linejoin:bevel;}
	.st153{clip-path:url(#SVGID_231_);fill:none;stroke:#FFFFFF;stroke-width:0.3;stroke-linecap:square;stroke-linejoin:bevel;}
	.st154{clip-path:url(#SVGID_233_);}
	.st155{clip-path:url(#SVGID_235_);fill:none;stroke:#FFFFFF;stroke-width:0.3;stroke-linecap:square;stroke-linejoin:bevel;}
	.st156{clip-path:url(#SVGID_237_);}
	.st157{clip-path:url(#SVGID_239_);fill:none;stroke:#FFFFFF;stroke-width:0.3;stroke-linecap:square;stroke-linejoin:bevel;}
	.st158{clip-path:url(#SVGID_241_);}
	.st159{clip-path:url(#SVGID_243_);fill:none;stroke:#FFFFFF;stroke-width:0.3;stroke-linecap:square;stroke-linejoin:bevel;}
	.st160{clip-path:url(#SVGID_245_);}
	.st161{clip-path:url(#SVGID_247_);fill:none;stroke:#FFFFFF;stroke-width:0.3;stroke-linecap:square;stroke-linejoin:bevel;}
	.st162{clip-path:url(#SVGID_249_);fill:none;stroke:#FFFFFF;stroke-width:0.3;stroke-linecap:square;stroke-linejoin:bevel;}
	.st163{clip-path:url(#SVGID_251_);}
	.st164{clip-path:url(#SVGID_253_);fill:none;stroke:#FFFFFF;stroke-width:0.3;stroke-linecap:square;stroke-linejoin:bevel;}
	.st165{clip-path:url(#SVGID_255_);fill:none;stroke:#FFFFFF;stroke-width:0.3;stroke-linecap:square;stroke-linejoin:bevel;}
	.st166{clip-path:url(#SVGID_257_);}
	.st167{clip-path:url(#SVGID_259_);fill:none;stroke:#FFFFFF;stroke-width:0.3;stroke-linecap:square;stroke-linejoin:bevel;}
	.st168{clip-path:url(#SVGID_261_);}
	.st169{clip-path:url(#SVGID_263_);fill:none;stroke:#FFFFFF;stroke-width:0.3;stroke-linecap:square;stroke-linejoin:bevel;}
	.st170{clip-path:url(#SVGID_265_);fill:none;stroke:#FFFFFF;stroke-width:0.3;stroke-linecap:square;stroke-linejoin:bevel;}
	.st171{clip-path:url(#SVGID_267_);}
	.st172{clip-path:url(#SVGID_269_);fill:none;stroke:#FFFFFF;stroke-width:0.3;stroke-linecap:square;stroke-linejoin:bevel;}
	.st173{clip-path:url(#SVGID_271_);fill:none;stroke:#FFFFFF;stroke-width:0.3;stroke-linecap:square;stroke-linejoin:bevel;}
	.st174{clip-path:url(#SVGID_273_);}
	.st175{clip-path:url(#SVGID_275_);fill:none;stroke:#FFFFFF;stroke-width:0.3;stroke-linecap:square;stroke-linejoin:bevel;}
	.st176{clip-path:url(#SVGID_277_);fill:none;stroke:#FFFFFF;stroke-width:0.3;stroke-linecap:square;stroke-linejoin:bevel;}
	.st177{clip-path:url(#SVGID_279_);}
	.st178{clip-path:url(#SVGID_281_);fill:none;stroke:#FFFFFF;stroke-width:0.3;stroke-linecap:square;stroke-linejoin:bevel;}
	.st179{clip-path:url(#SVGID_283_);}
	.st180{clip-path:url(#SVGID_285_);fill:none;stroke:#FFFFFF;stroke-width:0.3;stroke-linecap:square;stroke-linejoin:bevel;}
	.st181{clip-path:url(#SVGID_287_);}
	.st182{clip-path:url(#SVGID_289_);fill:none;stroke:#FFFFFF;stroke-width:0.3;stroke-linecap:square;stroke-linejoin:bevel;}
	.st183{clip-path:url(#SVGID_291_);fill:none;stroke:#FFFFFF;stroke-width:0.3;stroke-linecap:square;stroke-linejoin:bevel;}
	.st184{fill:url(#SVGID_292_);}
	.st185{fill:url(#SVGID_293_);}
	.st186{fill:url(#SVGID_294_);}
	.st187{fill:url(#SVGID_295_);}
	.st188{display:inline;fill:#4FC0AC;}
	.st189{fill:url(#SVGID_296_);}
	.st190{display:inline;fill:url(#SVGID_297_);}
	.st191{display:inline;fill:url(#SVGID_298_);}
	.st192{display:inline;fill:url(#SVGID_299_);}
	.st193{display:inline;fill:url(#SVGID_300_);}
</style>
<g id="reference">
</g>
<g id="color">
</g>
<g id="background">
</g>
<g id="plant">
</g>
<g id="food">
</g>
<g id="actors">
</g>
<g id="Слой_8">
</g>
<g id="terrariums">
</g>
<g id="buy_plants">
</g>
<g id="buy_aactors">
</g>
<g id="header">
	<g>
		<g>
			<g>
				<path class="st9" d="M63.7,64.4c-12.9,0-23.4-10.5-23.4-23.4s10.5-23.4,23.4-23.4S87,28.1,87,41S76.6,64.4,63.7,64.4z
					 M63.7,22.1c-10.4,0-18.8,8.5-18.8,18.8s8.5,18.8,18.8,18.8S82.5,51.4,82.5,41S74.1,22.1,63.7,22.1z"/>
			</g>
		</g>
		<g>
			<g>
				<g>
					<path class="st9" d="M133,64.5c-1,0-1.8-0.8-1.8-1.8v-7.8c0-1,0.8-1.8,1.8-1.8c1,0,1.8,0.8,1.8,1.8v7.8
						C134.8,63.7,134,64.5,133,64.5z"/>
				</g>
			</g>
			<g>
				<g>
					<path class="st9" d="M140.5,64.5c-1,0-1.8-0.8-1.8-1.8v-7.8c0-0.1,0-0.1,0-0.2c-0.2-0.9-1-1.5-1.9-1.5c-1.1,0-1.9,0.9-1.9,1.9
						c0,1-0.8,1.8-1.8,1.8c-1,0-1.8-0.8-1.8-1.8c0-1.1-0.9-1.9-1.9-1.9c-1,0-1.8,0.7-1.9,1.7c0,0,0,0,0,0v7.8c0,1-0.8,1.8-1.8,1.8
						s-1.8-0.8-1.8-1.8v-7.3c0-0.1,0-0.2,0-0.3c0-3.1,2.5-5.6,5.6-5.6c1.4,0,2.8,0.6,3.8,1.5c1-0.9,2.3-1.5,3.8-1.5
						c3.1,0,5.6,2.5,5.6,5.6c0,0.1,0,0.3-0.1,0.4v7.1C142.3,63.7,141.5,64.5,140.5,64.5z"/>
				</g>
			</g>
		</g>
		<g>
			<g>
				<g>
					<path class="st9" d="M104.8,36.7c6.5,0,11.8,5.3,11.8,11.8c0,6.5-5.3,11.8-11.8,11.8c-6.5,0-11.8-5.3-11.8-11.8
						C92.9,42,98.2,36.7,104.8,36.7 M104.8,32.8C96,32.8,89,39.8,89,48.6c0,8.7,7.1,15.8,15.8,15.8c8.7,0,15.8-7.1,15.8-15.8
						C120.5,39.8,113.5,32.8,104.8,32.8L104.8,32.8z"/>
				</g>
			</g>
		</g>
		<g>
			<g>
				<path class="st9" d="M42.4,63.6H6.7C3,63.6,0,60.6,0,57c0-1.8,0.7-3.5,2-4.7l0.3-0.3c2.3-2.5,25.6-28,39.7-43.3L42,8.5l0.2-0.2
					c0.1-0.1,0.1-0.2,0.2-0.2C42.8,7.7,43,7.2,43,6.7c0-1-0.8-1.9-1.9-1.9H3.4C2.1,4.8,1,3.7,1,2.4S2.1,0,3.4,0h37.7
					c3.7,0,6.7,3,6.7,6.7c0,1.7-0.7,3.4-1.8,4.6l-0.2,0.2c0,0.1-0.1,0.1-0.1,0.2l-0.2,0.2C32.1,26.4,6.8,54.1,5.8,55.2
					c0,0-0.1,0.1-0.1,0.1l-0.3,0.3C5,56,4.8,56.5,4.8,57c0,1,0.8,1.9,1.9,1.9h35.7c1.3,0,2.4,1.1,2.4,2.4
					C44.8,62.6,43.8,63.6,42.4,63.6z"/>
			</g>
		</g>
	</g>
</g>
<g id="all" class="st130">
</g>
</svg>
