<?xml version="1.0" encoding="utf-8"?>
<!-- Generator: Adobe Illustrator 20.1.0, SVG Export Plug-In . SVG Version: 6.00 Build 0)  -->
<svg version="1.1" xmlns="http://www.w3.org/2000/svg" xmlns:xlink="http://www.w3.org/1999/xlink" x="0px" y="0px"
	 viewBox="0 0 124.6 248" style="enable-background:new 0 0 124.6 248;" xml:space="preserve">
<style type="text/css">
	.st0{fill:none;}
	.st1{fill:none;stroke:#201600;stroke-width:0.3;stroke-linecap:square;}
	.st2{fill:#161342;}
	.st3{fill:#28235D;}
	.st4{fill:#443B96;}
	.st5{fill:#9289BE;}
	.st6{fill:#B0A9D2;}
	.st7{fill:#E25CA1;}
	.st8{fill:#EAA2C7;}
	.st9{fill:#53B0A6;}
	.st10{fill:#4EBFAB;}
	.st11{fill:#FFFFFF;}
	.st12{fill:#4FC0AC;}
	.st13{fill:url(#SVGID_1_);}
	.st14{fill:url(#SVGID_2_);}
	.st15{fill:url(#);}
	.st16{fill:url(#SVGID_3_);}
	.st17{fill:url(#SVGID_4_);}
	.st18{fill:url(#SVGID_5_);}
	.st19{fill:none;stroke:#FFFFFF;stroke-width:3;stroke-miterlimit:10;}
	.st20{fill:url(#USGS_8_Sewage_Disposal);}
	.st21{fill:url(#SVGID_6_);}
	.st22{fill:url(#SVGID_7_);}
	.st23{fill:url(#SVGID_8_);}
	.st24{fill:url(#SVGID_9_);}
	.st25{fill:url(#SVGID_10_);}
	.st26{clip-path:url(#SVGID_12_);}
	.st27{clip-path:url(#SVGID_14_);}
	.st28{fill:none;stroke:#FFFFFF;stroke-width:0.3;stroke-linecap:square;stroke-linejoin:bevel;}
	.st29{clip-path:url(#SVGID_16_);}
	.st30{clip-path:url(#SVGID_18_);}
	.st31{clip-path:url(#SVGID_20_);}
	.st32{fill:url(#SVGID_21_);}
	.st33{fill:url(#SVGID_22_);}
	.st34{clip-path:url(#SVGID_23_);}
	.st35{clip-path:url(#SVGID_25_);}
	.st36{clip-path:url(#SVGID_27_);}
	.st37{clip-path:url(#SVGID_29_);}
	.st38{clip-path:url(#SVGID_31_);}
	.st39{clip-path:url(#SVGID_33_);}
	.st40{clip-path:url(#SVGID_34_);fill:none;stroke:#FFFFFF;stroke-width:0.3;stroke-linecap:square;stroke-linejoin:bevel;}
	.st41{clip-path:url(#SVGID_36_);}
	.st42{clip-path:url(#SVGID_38_);fill:none;stroke:#FFFFFF;stroke-width:0.3;stroke-linecap:square;stroke-linejoin:bevel;}
	.st43{clip-path:url(#SVGID_40_);}
	.st44{clip-path:url(#SVGID_42_);fill:none;stroke:#FFFFFF;stroke-width:0.3;stroke-linecap:square;stroke-linejoin:bevel;}
	.st45{clip-path:url(#SVGID_44_);fill:none;stroke:#FFFFFF;stroke-width:0.3;stroke-linecap:square;stroke-linejoin:bevel;}
	.st46{clip-path:url(#SVGID_46_);}
	.st47{clip-path:url(#SVGID_48_);fill:none;stroke:#FFFFFF;stroke-width:0.3;stroke-linecap:square;stroke-linejoin:bevel;}
	.st48{clip-path:url(#SVGID_50_);}
	.st49{clip-path:url(#SVGID_52_);fill:none;stroke:#FFFFFF;stroke-width:0.3;stroke-linecap:square;stroke-linejoin:bevel;}
	.st50{clip-path:url(#SVGID_54_);}
	.st51{clip-path:url(#SVGID_56_);fill:none;stroke:#FFFFFF;stroke-width:0.3;stroke-linecap:square;stroke-linejoin:bevel;}
	.st52{clip-path:url(#SVGID_58_);}
	.st53{clip-path:url(#SVGID_60_);fill:none;stroke:#FFFFFF;stroke-width:0.3;stroke-linecap:square;stroke-linejoin:bevel;}
	.st54{clip-path:url(#SVGID_62_);fill:none;stroke:#FFFFFF;stroke-width:0.3;stroke-linecap:square;stroke-linejoin:bevel;}
	.st55{clip-path:url(#SVGID_64_);}
	.st56{clip-path:url(#SVGID_66_);fill:none;stroke:#FFFFFF;stroke-width:0.3;stroke-linecap:square;stroke-linejoin:bevel;}
	.st57{clip-path:url(#SVGID_68_);fill:none;stroke:#FFFFFF;stroke-width:0.3;stroke-linecap:square;stroke-linejoin:bevel;}
	.st58{clip-path:url(#SVGID_70_);}
	.st59{clip-path:url(#SVGID_72_);fill:none;stroke:#FFFFFF;stroke-width:0.3;stroke-linecap:square;stroke-linejoin:bevel;}
	.st60{clip-path:url(#SVGID_74_);}
	.st61{clip-path:url(#SVGID_76_);fill:none;stroke:#FFFFFF;stroke-width:0.3;stroke-linecap:square;stroke-linejoin:bevel;}
	.st62{clip-path:url(#SVGID_78_);fill:none;stroke:#FFFFFF;stroke-width:0.3;stroke-linecap:square;stroke-linejoin:bevel;}
	.st63{clip-path:url(#SVGID_80_);}
	.st64{clip-path:url(#SVGID_82_);fill:none;stroke:#FFFFFF;stroke-width:0.3;stroke-linecap:square;stroke-linejoin:bevel;}
	.st65{clip-path:url(#SVGID_84_);fill:none;stroke:#FFFFFF;stroke-width:0.3;stroke-linecap:square;stroke-linejoin:bevel;}
	.st66{clip-path:url(#SVGID_86_);}
	.st67{clip-path:url(#SVGID_88_);fill:none;stroke:#FFFFFF;stroke-width:0.3;stroke-linecap:square;stroke-linejoin:bevel;}
	.st68{clip-path:url(#SVGID_90_);fill:none;stroke:#FFFFFF;stroke-width:0.3;stroke-linecap:square;stroke-linejoin:bevel;}
	.st69{clip-path:url(#SVGID_92_);}
	.st70{clip-path:url(#SVGID_94_);fill:none;stroke:#FFFFFF;stroke-width:0.3;stroke-linecap:square;stroke-linejoin:bevel;}
	.st71{clip-path:url(#SVGID_96_);}
	.st72{clip-path:url(#SVGID_98_);fill:none;stroke:#FFFFFF;stroke-width:0.3;stroke-linecap:square;stroke-linejoin:bevel;}
	.st73{clip-path:url(#SVGID_100_);}
	.st74{clip-path:url(#SVGID_102_);fill:none;stroke:#FFFFFF;stroke-width:0.3;stroke-linecap:square;stroke-linejoin:bevel;}
	.st75{clip-path:url(#SVGID_104_);fill:none;stroke:#FFFFFF;stroke-width:0.3;stroke-linecap:square;stroke-linejoin:bevel;}
	.st76{fill:url(#SVGID_106_);}
	.st77{fill:url(#SVGID_108_);}
	.st78{fill:url(#SVGID_109_);}
	.st79{fill:url(#SVGID_110_);}
	.st80{fill:url(#SVGID_111_);}
	.st81{fill:url(#SVGID_112_);}
	.st82{fill:url(#SVGID_113_);}
	.st83{fill:url(#SVGID_114_);}
	.st84{fill:url(#SVGID_115_);}
	.st85{fill:url(#SVGID_116_);}
	.st86{fill:url(#SVGID_117_);}
	.st87{fill:url(#SVGID_118_);}
	.st88{fill:url(#SVGID_119_);}
	.st89{fill:url(#SVGID_120_);}
	.st90{fill:url(#SVGID_121_);}
	.st91{fill:url(#SVGID_122_);}
	.st92{fill:url(#SVGID_123_);}
	.st93{opacity:0;fill:none;stroke:#FFFFFF;stroke-width:3;stroke-miterlimit:10;}
	.st94{fill:url(#SVGID_124_);}
	.st95{fill:url(#SVGID_125_);}
	.st96{fill:url(#SVGID_126_);}
	.st97{fill:url(#SVGID_127_);}
	.st98{fill:none;stroke:#28235D;stroke-width:3;stroke-miterlimit:10;}
	.st99{fill:#EAA2C7;stroke:#28235D;stroke-width:3;stroke-miterlimit:10;}
	.st100{fill:#28235D;stroke:#28235D;stroke-miterlimit:10;}
	.st101{fill:none;stroke:#FFFFFF;stroke-width:12;stroke-linejoin:bevel;stroke-miterlimit:10;}
	.st102{fill:#EAA2C7;stroke:#FFFFFF;stroke-width:7;stroke-linejoin:bevel;stroke-miterlimit:10;}
	.st103{clip-path:url(#SVGID_128_);}
	.st104{clip-path:url(#SVGID_129_);fill:url(#);}
	.st105{clip-path:url(#SVGID_130_);}
	.st106{clip-path:url(#SVGID_131_);fill:url(#);}
	.st107{clip-path:url(#SVGID_132_);}
	.st108{clip-path:url(#SVGID_133_);fill:none;stroke:#FFFFFF;stroke-width:0.3;stroke-linecap:square;stroke-linejoin:bevel;}
	.st109{clip-path:url(#SVGID_134_);fill:none;stroke:#FFFFFF;stroke-width:0.3;stroke-linecap:square;stroke-linejoin:bevel;}
	.st110{clip-path:url(#SVGID_135_);}
	.st111{clip-path:url(#SVGID_136_);fill:url(#);}
	.st112{clip-path:url(#SVGID_137_);}
	.st113{clip-path:url(#SVGID_139_);fill:none;stroke:#FFFFFF;stroke-width:0.3;stroke-linecap:square;stroke-linejoin:bevel;}
	.st114{clip-path:url(#SVGID_140_);}
	.st115{clip-path:url(#SVGID_142_);fill:none;stroke:#FFFFFF;stroke-width:0.3;stroke-linecap:square;stroke-linejoin:bevel;}
	.st116{clip-path:url(#SVGID_143_);}
	.st117{clip-path:url(#SVGID_144_);fill:url(#);}
	.st118{clip-path:url(#SVGID_145_);fill:url(#);}
	.st119{clip-path:url(#SVGID_146_);}
	.st120{clip-path:url(#SVGID_147_);fill:url(#);}
	.st121{clip-path:url(#SVGID_148_);fill:url(#);}
	.st122{clip-path:url(#SVGID_149_);}
	.st123{clip-path:url(#SVGID_150_);fill:url(#);}
	.st124{clip-path:url(#SVGID_151_);}
	.st125{clip-path:url(#SVGID_152_);fill:url(#);}
	.st126{clip-path:url(#SVGID_153_);fill:url(#);}
	.st127{clip-path:url(#SVGID_154_);}
	.st128{clip-path:url(#SVGID_155_);fill:url(#);}
	.st129{clip-path:url(#SVGID_156_);fill:url(#);}
	.st130{clip-path:url(#SVGID_157_);}
	.st131{clip-path:url(#SVGID_158_);fill:url(#);}
	.st132{clip-path:url(#SVGID_159_);fill:url(#);}
	.st133{clip-path:url(#SVGID_160_);}
	.st134{clip-path:url(#SVGID_161_);fill:url(#);}
	.st135{clip-path:url(#SVGID_162_);}
	.st136{clip-path:url(#SVGID_163_);fill:url(#);}
	.st137{clip-path:url(#SVGID_164_);}
	.st138{clip-path:url(#SVGID_165_);fill:url(#);}
	.st139{clip-path:url(#SVGID_166_);fill:url(#);}
	.st140{fill:#B0A9D2;stroke:#FFFFFF;stroke-width:7;stroke-linejoin:bevel;stroke-miterlimit:10;}
	.st141{fill:none;stroke:#FFFFFF;stroke-width:7;stroke-linejoin:bevel;stroke-miterlimit:10;}
	.st142{fill:url(#SVGID_167_);}
	.st143{fill:url(#SVGID_168_);}
	.st144{fill:url(#SVGID_169_);}
	.st145{fill:url(#SVGID_170_);}
	.st146{fill:url(#SVGID_171_);}
	.st147{fill:url(#SVGID_172_);}
	.st148{fill:url(#SVGID_173_);}
	.st149{fill:url(#SVGID_174_);}
	.st150{fill:url(#SVGID_175_);}
	.st151{fill:url(#SVGID_176_);}
	.st152{fill:url(#SVGID_177_);}
	.st153{fill:url(#SVGID_178_);}
	.st154{clip-path:url(#SVGID_179_);}
	.st155{clip-path:url(#SVGID_180_);}
	.st156{clip-path:url(#SVGID_181_);}
	.st157{clip-path:url(#SVGID_182_);}
	.st158{clip-path:url(#SVGID_183_);}
	.st159{fill:url(#SVGID_184_);}
	.st160{fill:url(#SVGID_185_);}
	.st161{clip-path:url(#SVGID_186_);}
	.st162{clip-path:url(#SVGID_187_);}
	.st163{clip-path:url(#SVGID_188_);}
	.st164{clip-path:url(#SVGID_189_);}
	.st165{clip-path:url(#SVGID_190_);}
	.st166{clip-path:url(#SVGID_191_);}
	.st167{clip-path:url(#SVGID_192_);fill:none;stroke:#FFFFFF;stroke-width:0.3;stroke-linecap:square;stroke-linejoin:bevel;}
	.st168{clip-path:url(#SVGID_193_);}
	.st169{clip-path:url(#SVGID_194_);fill:none;stroke:#FFFFFF;stroke-width:0.3;stroke-linecap:square;stroke-linejoin:bevel;}
	.st170{clip-path:url(#SVGID_195_);}
	.st171{clip-path:url(#SVGID_196_);fill:none;stroke:#FFFFFF;stroke-width:0.3;stroke-linecap:square;stroke-linejoin:bevel;}
	.st172{clip-path:url(#SVGID_197_);fill:none;stroke:#FFFFFF;stroke-width:0.3;stroke-linecap:square;stroke-linejoin:bevel;}
	.st173{clip-path:url(#SVGID_198_);}
	.st174{clip-path:url(#SVGID_199_);fill:none;stroke:#FFFFFF;stroke-width:0.3;stroke-linecap:square;stroke-linejoin:bevel;}
	.st175{clip-path:url(#SVGID_200_);}
	.st176{clip-path:url(#SVGID_201_);fill:none;stroke:#FFFFFF;stroke-width:0.3;stroke-linecap:square;stroke-linejoin:bevel;}
	.st177{clip-path:url(#SVGID_202_);}
	.st178{clip-path:url(#SVGID_203_);fill:none;stroke:#FFFFFF;stroke-width:0.3;stroke-linecap:square;stroke-linejoin:bevel;}
	.st179{clip-path:url(#SVGID_204_);}
	.st180{clip-path:url(#SVGID_205_);fill:none;stroke:#FFFFFF;stroke-width:0.3;stroke-linecap:square;stroke-linejoin:bevel;}
	.st181{clip-path:url(#SVGID_206_);fill:none;stroke:#FFFFFF;stroke-width:0.3;stroke-linecap:square;stroke-linejoin:bevel;}
	.st182{clip-path:url(#SVGID_207_);}
	.st183{clip-path:url(#SVGID_208_);fill:none;stroke:#FFFFFF;stroke-width:0.3;stroke-linecap:square;stroke-linejoin:bevel;}
	.st184{clip-path:url(#SVGID_209_);fill:none;stroke:#FFFFFF;stroke-width:0.3;stroke-linecap:square;stroke-linejoin:bevel;}
	.st185{clip-path:url(#SVGID_210_);}
	.st186{clip-path:url(#SVGID_211_);fill:none;stroke:#FFFFFF;stroke-width:0.3;stroke-linecap:square;stroke-linejoin:bevel;}
	.st187{clip-path:url(#SVGID_212_);}
	.st188{clip-path:url(#SVGID_213_);fill:none;stroke:#FFFFFF;stroke-width:0.3;stroke-linecap:square;stroke-linejoin:bevel;}
	.st189{clip-path:url(#SVGID_214_);fill:none;stroke:#FFFFFF;stroke-width:0.3;stroke-linecap:square;stroke-linejoin:bevel;}
	.st190{clip-path:url(#SVGID_215_);}
	.st191{clip-path:url(#SVGID_216_);fill:none;stroke:#FFFFFF;stroke-width:0.3;stroke-linecap:square;stroke-linejoin:bevel;}
	.st192{clip-path:url(#SVGID_217_);fill:none;stroke:#FFFFFF;stroke-width:0.3;stroke-linecap:square;stroke-linejoin:bevel;}
	.st193{clip-path:url(#SVGID_218_);}
	.st194{clip-path:url(#SVGID_219_);fill:none;stroke:#FFFFFF;stroke-width:0.3;stroke-linecap:square;stroke-linejoin:bevel;}
	.st195{clip-path:url(#SVGID_220_);fill:none;stroke:#FFFFFF;stroke-width:0.3;stroke-linecap:square;stroke-linejoin:bevel;}
	.st196{clip-path:url(#SVGID_221_);}
	.st197{clip-path:url(#SVGID_222_);fill:none;stroke:#FFFFFF;stroke-width:0.3;stroke-linecap:square;stroke-linejoin:bevel;}
	.st198{clip-path:url(#SVGID_223_);}
	.st199{clip-path:url(#SVGID_224_);fill:none;stroke:#FFFFFF;stroke-width:0.3;stroke-linecap:square;stroke-linejoin:bevel;}
	.st200{clip-path:url(#SVGID_225_);}
	.st201{clip-path:url(#SVGID_226_);fill:none;stroke:#FFFFFF;stroke-width:0.3;stroke-linecap:square;stroke-linejoin:bevel;}
	.st202{clip-path:url(#SVGID_227_);fill:none;stroke:#FFFFFF;stroke-width:0.3;stroke-linecap:square;stroke-linejoin:bevel;}
	.st203{fill:url(#SVGID_228_);}
	.st204{fill:url(#SVGID_229_);}
	.st205{fill:url(#SVGID_230_);}
	.st206{fill:url(#SVGID_231_);}
	.st207{fill:url(#SVGID_232_);}
	.st208{fill:url(#SVGID_233_);}
	.st209{fill:url(#SVGID_234_);}
	.st210{fill:url(#SVGID_235_);}
	.st211{fill:url(#SVGID_236_);}
	.st212{fill:url(#SVGID_237_);}
	.st213{fill:url(#SVGID_238_);}
	.st214{fill:url(#SVGID_239_);}
</style>
<pattern  x="1112.9" y="-565.1" width="72" height="74.8" patternUnits="userSpaceOnUse" id="USGS_8_Sewage_Disposal" viewBox="72.2 -74.8 72 74.8" style="overflow:visible;">
	<g>
		<rect x="72.2" y="-74.8" class="st0" width="72" height="74.8"/>
		<g>
			<line class="st1" x1="144.2" y1="-0.8" x2="216.2" y2="-0.8"/>
			<line class="st1" x1="144.2" y1="-2.5" x2="216.2" y2="-2.5"/>
			<line class="st1" x1="144.2" y1="-4.2" x2="216.2" y2="-4.2"/>
			<line class="st1" x1="144.2" y1="-6" x2="216.2" y2="-6"/>
			<line class="st1" x1="144.2" y1="-7.7" x2="216.2" y2="-7.7"/>
			<line class="st1" x1="144.2" y1="-9.3" x2="216.2" y2="-9.3"/>
			<line class="st1" x1="144.2" y1="-11" x2="216.2" y2="-11"/>
			<line class="st1" x1="144.2" y1="-12.8" x2="216.2" y2="-12.8"/>
			<line class="st1" x1="144.2" y1="-14.5" x2="216.2" y2="-14.5"/>
			<line class="st1" x1="144.2" y1="-16.2" x2="216.2" y2="-16.2"/>
			<line class="st1" x1="144.2" y1="-17.8" x2="216.2" y2="-17.8"/>
			<line class="st1" x1="144.2" y1="-19.5" x2="216.2" y2="-19.5"/>
			<line class="st1" x1="144.2" y1="-21.2" x2="216.2" y2="-21.2"/>
			<line class="st1" x1="144.2" y1="-22.9" x2="216.2" y2="-22.9"/>
			<line class="st1" x1="144.2" y1="-24.6" x2="216.2" y2="-24.6"/>
			<line class="st1" x1="144.2" y1="-26.3" x2="216.2" y2="-26.3"/>
			<line class="st1" x1="144.2" y1="-28" x2="216.2" y2="-28"/>
			<line class="st1" x1="144.2" y1="-29.7" x2="216.2" y2="-29.7"/>
			<line class="st1" x1="144.2" y1="-31.4" x2="216.2" y2="-31.4"/>
			<line class="st1" x1="144.2" y1="-33.1" x2="216.2" y2="-33.1"/>
			<line class="st1" x1="144.2" y1="-34.8" x2="216.2" y2="-34.8"/>
			<line class="st1" x1="144.2" y1="-36.5" x2="216.2" y2="-36.5"/>
			<line class="st1" x1="144.2" y1="-38.2" x2="216.2" y2="-38.2"/>
			<line class="st1" x1="144.2" y1="-39.9" x2="216.2" y2="-39.9"/>
			<line class="st1" x1="144.2" y1="-41.6" x2="216.2" y2="-41.6"/>
			<line class="st1" x1="144.2" y1="-43.3" x2="216.2" y2="-43.3"/>
			<line class="st1" x1="144.2" y1="-45" x2="216.2" y2="-45"/>
			<line class="st1" x1="144.2" y1="-46.7" x2="216.2" y2="-46.7"/>
			<line class="st1" x1="144.2" y1="-48.4" x2="216.2" y2="-48.4"/>
			<line class="st1" x1="144.2" y1="-50.1" x2="216.2" y2="-50.1"/>
			<line class="st1" x1="144.2" y1="-51.8" x2="216.2" y2="-51.8"/>
			<line class="st1" x1="144.2" y1="-53.5" x2="216.2" y2="-53.5"/>
			<line class="st1" x1="144.2" y1="-55.2" x2="216.2" y2="-55.2"/>
			<line class="st1" x1="144.2" y1="-56.9" x2="216.2" y2="-56.9"/>
			<line class="st1" x1="144.2" y1="-58.6" x2="216.2" y2="-58.6"/>
			<line class="st1" x1="144.2" y1="-60.3" x2="216.2" y2="-60.3"/>
			<line class="st1" x1="144.2" y1="-62" x2="216.2" y2="-62"/>
			<line class="st1" x1="144.2" y1="-63.7" x2="216.2" y2="-63.7"/>
			<line class="st1" x1="144.2" y1="-65.4" x2="216.2" y2="-65.4"/>
			<line class="st1" x1="144.2" y1="-67.1" x2="216.2" y2="-67.1"/>
			<line class="st1" x1="144.2" y1="-68.8" x2="216.2" y2="-68.8"/>
			<line class="st1" x1="144.2" y1="-70.5" x2="216.2" y2="-70.5"/>
			<line class="st1" x1="144.2" y1="-72.2" x2="216.2" y2="-72.2"/>
			<line class="st1" x1="144.2" y1="-73.9" x2="216.2" y2="-73.9"/>
		</g>
		<g>
			<line class="st1" x1="72.2" y1="-0.8" x2="144.2" y2="-0.8"/>
			<line class="st1" x1="72.2" y1="-2.5" x2="144.2" y2="-2.5"/>
			<line class="st1" x1="72.2" y1="-4.2" x2="144.2" y2="-4.2"/>
			<line class="st1" x1="72.2" y1="-6" x2="144.2" y2="-6"/>
			<line class="st1" x1="72.2" y1="-7.7" x2="144.2" y2="-7.7"/>
			<line class="st1" x1="72.2" y1="-9.3" x2="144.2" y2="-9.3"/>
			<line class="st1" x1="72.2" y1="-11" x2="144.2" y2="-11"/>
			<line class="st1" x1="72.2" y1="-12.8" x2="144.2" y2="-12.8"/>
			<line class="st1" x1="72.2" y1="-14.5" x2="144.2" y2="-14.5"/>
			<line class="st1" x1="72.2" y1="-16.2" x2="144.2" y2="-16.2"/>
			<line class="st1" x1="72.2" y1="-17.8" x2="144.2" y2="-17.8"/>
			<line class="st1" x1="72.2" y1="-19.5" x2="144.2" y2="-19.5"/>
			<line class="st1" x1="72.2" y1="-21.2" x2="144.2" y2="-21.2"/>
			<line class="st1" x1="72.2" y1="-22.9" x2="144.2" y2="-22.9"/>
			<line class="st1" x1="72.2" y1="-24.6" x2="144.2" y2="-24.6"/>
			<line class="st1" x1="72.2" y1="-26.3" x2="144.2" y2="-26.3"/>
			<line class="st1" x1="72.2" y1="-28" x2="144.2" y2="-28"/>
			<line class="st1" x1="72.2" y1="-29.7" x2="144.2" y2="-29.7"/>
			<line class="st1" x1="72.2" y1="-31.4" x2="144.2" y2="-31.4"/>
			<line class="st1" x1="72.2" y1="-33.1" x2="144.2" y2="-33.1"/>
			<line class="st1" x1="72.2" y1="-34.8" x2="144.2" y2="-34.8"/>
			<line class="st1" x1="72.2" y1="-36.5" x2="144.2" y2="-36.5"/>
			<line class="st1" x1="72.2" y1="-38.2" x2="144.2" y2="-38.2"/>
			<line class="st1" x1="72.2" y1="-39.9" x2="144.2" y2="-39.9"/>
			<line class="st1" x1="72.2" y1="-41.6" x2="144.2" y2="-41.6"/>
			<line class="st1" x1="72.2" y1="-43.3" x2="144.2" y2="-43.3"/>
			<line class="st1" x1="72.2" y1="-45" x2="144.2" y2="-45"/>
			<line class="st1" x1="72.2" y1="-46.7" x2="144.2" y2="-46.7"/>
			<line class="st1" x1="72.2" y1="-48.4" x2="144.2" y2="-48.4"/>
			<line class="st1" x1="72.2" y1="-50.1" x2="144.2" y2="-50.1"/>
			<line class="st1" x1="72.2" y1="-51.8" x2="144.2" y2="-51.8"/>
			<line class="st1" x1="72.2" y1="-53.5" x2="144.2" y2="-53.5"/>
			<line class="st1" x1="72.2" y1="-55.2" x2="144.2" y2="-55.2"/>
			<line class="st1" x1="72.2" y1="-56.9" x2="144.2" y2="-56.9"/>
			<line class="st1" x1="72.2" y1="-58.6" x2="144.2" y2="-58.6"/>
			<line class="st1" x1="72.2" y1="-60.3" x2="144.2" y2="-60.3"/>
			<line class="st1" x1="72.2" y1="-62" x2="144.2" y2="-62"/>
			<line class="st1" x1="72.2" y1="-63.7" x2="144.2" y2="-63.7"/>
			<line class="st1" x1="72.2" y1="-65.4" x2="144.2" y2="-65.4"/>
			<line class="st1" x1="72.2" y1="-67.1" x2="144.2" y2="-67.1"/>
			<line class="st1" x1="72.2" y1="-68.8" x2="144.2" y2="-68.8"/>
			<line class="st1" x1="72.2" y1="-70.5" x2="144.2" y2="-70.5"/>
			<line class="st1" x1="72.2" y1="-72.2" x2="144.2" y2="-72.2"/>
			<line class="st1" x1="72.2" y1="-73.9" x2="144.2" y2="-73.9"/>
		</g>
		<g>
			<line class="st1" x1="0.2" y1="-0.8" x2="72.2" y2="-0.8"/>
			<line class="st1" x1="0.2" y1="-2.5" x2="72.2" y2="-2.5"/>
			<line class="st1" x1="0.2" y1="-4.2" x2="72.2" y2="-4.2"/>
			<line class="st1" x1="0.2" y1="-6" x2="72.2" y2="-6"/>
			<line class="st1" x1="0.2" y1="-7.7" x2="72.2" y2="-7.7"/>
			<line class="st1" x1="0.2" y1="-9.3" x2="72.2" y2="-9.3"/>
			<line class="st1" x1="0.2" y1="-11" x2="72.2" y2="-11"/>
			<line class="st1" x1="0.2" y1="-12.8" x2="72.2" y2="-12.8"/>
			<line class="st1" x1="0.2" y1="-14.5" x2="72.2" y2="-14.5"/>
			<line class="st1" x1="0.2" y1="-16.2" x2="72.2" y2="-16.2"/>
			<line class="st1" x1="0.2" y1="-17.8" x2="72.2" y2="-17.8"/>
			<line class="st1" x1="0.2" y1="-19.5" x2="72.2" y2="-19.5"/>
			<line class="st1" x1="0.2" y1="-21.2" x2="72.2" y2="-21.2"/>
			<line class="st1" x1="0.2" y1="-22.9" x2="72.2" y2="-22.9"/>
			<line class="st1" x1="0.2" y1="-24.6" x2="72.2" y2="-24.6"/>
			<line class="st1" x1="0.2" y1="-26.3" x2="72.2" y2="-26.3"/>
			<line class="st1" x1="0.2" y1="-28" x2="72.2" y2="-28"/>
			<line class="st1" x1="0.2" y1="-29.7" x2="72.2" y2="-29.7"/>
			<line class="st1" x1="0.2" y1="-31.4" x2="72.2" y2="-31.4"/>
			<line class="st1" x1="0.2" y1="-33.1" x2="72.2" y2="-33.1"/>
			<line class="st1" x1="0.2" y1="-34.8" x2="72.2" y2="-34.8"/>
			<line class="st1" x1="0.2" y1="-36.5" x2="72.2" y2="-36.5"/>
			<line class="st1" x1="0.2" y1="-38.2" x2="72.2" y2="-38.2"/>
			<line class="st1" x1="0.2" y1="-39.9" x2="72.2" y2="-39.9"/>
			<line class="st1" x1="0.2" y1="-41.6" x2="72.2" y2="-41.6"/>
			<line class="st1" x1="0.2" y1="-43.3" x2="72.2" y2="-43.3"/>
			<line class="st1" x1="0.2" y1="-45" x2="72.2" y2="-45"/>
			<line class="st1" x1="0.2" y1="-46.7" x2="72.2" y2="-46.7"/>
			<line class="st1" x1="0.2" y1="-48.4" x2="72.2" y2="-48.4"/>
			<line class="st1" x1="0.2" y1="-50.1" x2="72.2" y2="-50.1"/>
			<line class="st1" x1="0.2" y1="-51.8" x2="72.2" y2="-51.8"/>
			<line class="st1" x1="0.2" y1="-53.5" x2="72.2" y2="-53.5"/>
			<line class="st1" x1="0.2" y1="-55.2" x2="72.2" y2="-55.2"/>
			<line class="st1" x1="0.2" y1="-56.9" x2="72.2" y2="-56.9"/>
			<line class="st1" x1="0.2" y1="-58.6" x2="72.2" y2="-58.6"/>
			<line class="st1" x1="0.2" y1="-60.3" x2="72.2" y2="-60.3"/>
			<line class="st1" x1="0.2" y1="-62" x2="72.2" y2="-62"/>
			<line class="st1" x1="0.2" y1="-63.7" x2="72.2" y2="-63.7"/>
			<line class="st1" x1="0.2" y1="-65.4" x2="72.2" y2="-65.4"/>
			<line class="st1" x1="0.2" y1="-67.1" x2="72.2" y2="-67.1"/>
			<line class="st1" x1="0.2" y1="-68.8" x2="72.2" y2="-68.8"/>
			<line class="st1" x1="0.2" y1="-70.5" x2="72.2" y2="-70.5"/>
			<line class="st1" x1="0.2" y1="-72.2" x2="72.2" y2="-72.2"/>
			<line class="st1" x1="0.2" y1="-73.9" x2="72.2" y2="-73.9"/>
		</g>
	</g>
</pattern>
<g id="reference">
</g>
<g id="color">
</g>
<g id="background">
</g>
<g id="plant">
</g>
<g id="food">
</g>
<g id="actors">
</g>
<g id="Слой_8">
</g>
<g id="terrariums">
</g>
<g id="buy_plants">
</g>
<g id="buy_aactors">
</g>
<g id="header">
</g>
<g id="all">
	<g>
		<g>
			<g>
				<polygon class="st11" points="34.4,45 24.7,54 16.9,77.6 17.5,123.4 23.4,137.6 22.3,223.3 37.2,233.6 				"/>
				<pattern  id="SVGID_1_" xlink:href="#USGS_8_Sewage_Disposal" patternTransform="matrix(1 0 0 1 -26.7329 46.6936)">
				</pattern>
				<polygon class="st13" points="34.4,45 24.7,54 16.9,77.6 17.5,123.4 23.4,137.6 22.3,223.3 37.2,233.6 				"/>
				<polygon class="st4" points="34.4,45 24.7,54 16.9,77.6 17.5,123.4 23.4,137.6 22.3,223.3 37.2,233.6 				"/>
				<linearGradient id="SVGID_2_" gradientUnits="userSpaceOnUse" x1="16.9332" y1="139.3351" x2="37.194" y2="139.3351">
					<stop  offset="0" style="stop-color:#FFFFFF"/>
					<stop  offset="1" style="stop-color:#FFFFFF;stop-opacity:0"/>
				</linearGradient>
				<polygon class="st14" points="34.4,45 24.7,54 16.9,77.6 17.5,123.4 23.4,137.6 22.3,223.3 37.2,233.6 				"/>
			</g>
			<polygon class="st3" points="52.1,227.4 43.1,136.8 48.5,123.1 44.6,52 38.5,45.6 34.4,45 31.9,63.3 34.1,135 37.2,233.6 			"/>
			<polygon class="st11" points="44.4,61.3 49.3,61.9 43.3,69.6 			"/>
			<polygon class="st11" points="44.9,78.7 51.1,79.5 44.1,84.2 			"/>
			<polygon class="st11" points="46.6,111.6 50.1,112.1 45.8,117.5 			"/>
			<polygon class="st11" points="37.5,49.7 44.5,46.4 41.2,53.4 			"/>
			<polygon class="st11" points="42.7,140.3 48.2,141 41.9,146 			"/>
			<polygon class="st11" points="42.3,155.8 47.9,156.6 45.7,162.8 			"/>
			<polygon class="st11" points="43.7,173.3 48.7,174 44.8,178.6 			"/>
			<polygon class="st11" points="47,186.8 51.5,187.4 46.1,193.2 			"/>
			<polygon class="st11" points="47.1,203.1 50.4,203.6 49.6,209.4 			"/>
			<polygon class="st3" points="28.9,54.1 23.3,51 24.1,58.5 			"/>
			<polygon class="st3" points="23.2,64.9 14.8,65.7 22.3,70.9 			"/>
			<polygon class="st3" points="19.2,80.7 15.8,85.9 19.8,89.2 			"/>
			<polygon class="st3" points="19.7,98.6 13.7,103.8 20.1,104.7 			"/>
			<polygon class="st3" points="18.8,113.7 15.8,118.1 20,118.7 			"/>
			<polygon class="st3" points="24.7,147.6 19.9,149.5 23.9,153.3 			"/>
			<polygon class="st3" points="25.4,167.5 21.6,170.2 26.9,173.5 			"/>
			<polygon class="st3" points="25.4,183.8 21.8,186.6 26.3,192.6 			"/>
			<polygon class="st3" points="18.7,127.8 18.2,131.6 25.1,128.6 			"/>
			<polygon class="st3" points="24.8,206 18.5,209.9 25.9,212.6 			"/>
			<polygon class="st11" points="46.1,124.7 49.9,128.6 44.3,128.8 			"/>
		</g>
		<g>
			<g>
				<polygon class="st11" points="68.4,234.1 55.7,228 76.9,124.2 72.9,118.2 93.1,82.6 106.1,76.4 				"/>
				<pattern  id="SVGID_3_" xlink:href="#USGS_8_Sewage_Disposal" patternTransform="matrix(1 0 0 1 -26.7329 46.6936)">
				</pattern>
				<polygon class="st16" points="68.4,234.1 55.7,228 76.9,124.2 72.9,118.2 93.1,82.6 106.1,76.4 				"/>
				<polygon class="st4" points="68.4,234.1 55.7,228 76.9,124.2 72.9,118.2 93.1,82.6 106.1,76.4 				"/>
				<linearGradient id="SVGID_4_" gradientUnits="userSpaceOnUse" x1="67.5359" y1="152.1568" x2="93.4812" y2="156.2661">
					<stop  offset="0" style="stop-color:#FFFFFF"/>
					<stop  offset="1" style="stop-color:#FFFFFF;stop-opacity:0"/>
				</linearGradient>
				<polygon class="st17" points="68.4,234.1 55.7,228 76.9,124.2 72.9,118.2 93.1,82.6 106.1,76.4 				"/>
			</g>
			<polygon class="st3" points="106.1,76.4 111,85 111.7,106.7 103.9,127.9 94.2,132.3 84.6,232 68.4,234.1 82.3,133.8 91.9,108.6 
							"/>
			<polygon class="st11" points="107.1,82.6 110.8,80.1 108.1,87.4 			"/>
			<polygon class="st11" points="109.3,90.4 113.6,93.1 108.4,97.3 			"/>
			<polygon class="st11" points="89.9,144.2 94.9,147.5 91.8,150 			"/>
			<polygon class="st11" points="90.4,159.6 94.1,163 89.6,165.6 			"/>
			<path class="st11" d="M87.7,179L92,180c0,0-4.9,7.3-5,4.4S87.7,179,87.7,179z"/>
			<polygon class="st11" points="84.8,208.4 89.2,211.9 84,214.2 			"/>
			<polygon class="st3" points="101,81.8 99.2,77 96.2,81.1 			"/>
			<polygon class="st3" points="91.7,85.2 86.8,84.5 90.8,91.4 			"/>
			<polygon class="st3" points="87.2,98.6 81.6,95.4 83.6,102.7 			"/>
			<polygon class="st3" points="79.1,112.8 72.8,113.1 78.5,117.5 			"/>
			<polygon class="st3" points="76.9,128.9 72.7,130.9 76,135.7 			"/>
			<polygon class="st3" points="74.7,144.9 70.8,144.3 73.9,150.4 			"/>
			<polygon class="st3" points="72.6,160 66.6,159.2 71.7,166.4 			"/>
			<polygon class="st3" points="68.1,179.2 63.3,181.7 67,187.2 			"/>
			<polygon class="st3" points="64.3,197.9 59.5,201 62.9,208.3 			"/>
			<polygon class="st11" points="86.6,195.6 90.9,199.4 84.5,200.7 			"/>
			<polygon class="st11" points="109.9,102.9 114,107 108.8,110.9 			"/>
			<polygon class="st11" points="105.7,116.5 107.1,123 101.9,120.8 			"/>
			<polygon class="st11" points="100.9,127.5 101.7,133.3 94.7,129 			"/>
		</g>
		<g>
			<g>
				<polygon class="st11" points="69.9,21.5 61.9,26.4 57.2,35.6 44.8,102.1 48,114.1 53.2,118.5 39.7,220.8 50.8,231.7 				"/>
				<pattern  id="SVGID_5_" xlink:href="#USGS_8_Sewage_Disposal" patternTransform="matrix(1 0 0 1 -26.7329 46.6936)">
				</pattern>
				<polygon class="st18" points="69.9,21.5 61.9,26.4 57.2,35.6 44.8,102.1 48,114.1 53.2,118.5 39.7,220.8 50.8,231.7 				"/>
				<polygon class="st5" points="69.9,21.5 61.9,26.4 57.2,35.6 44.8,102.1 48,114.1 53.2,118.5 39.7,220.8 50.8,231.7 				"/>
				<linearGradient id="SVGID_6_" gradientUnits="userSpaceOnUse" x1="39.6731" y1="126.5736" x2="69.8631" y2="126.5736">
					<stop  offset="0" style="stop-color:#FFFFFF"/>
					<stop  offset="1" style="stop-color:#FFFFFF;stop-opacity:0"/>
				</linearGradient>
				<polygon class="st21" points="69.9,21.5 61.9,26.4 57.2,35.6 44.8,102.1 48,114.1 53.2,118.5 39.7,220.8 50.8,231.7 				"/>
			</g>
			<polygon class="st3" points="69.9,21.5 80,26.1 84,44 78.8,102.1 68.7,120.6 58,228.3 50.8,231.7 58.4,121.6 59.7,94.7 
				65.4,34.9 			"/>
			<polygon class="st3" points="64.2,25 58.7,24.2 63.6,29.9 			"/>
			<polygon class="st3" points="57.2,35.6 52.6,37.8 59.7,42.5 			"/>
			<polygon class="st3" points="57.7,52 50.6,52.9 55.6,59.1 			"/>
			<polygon class="st3" points="52.5,69 49,71.6 53.8,72.2 			"/>
			<polygon class="st3" points="51.4,84.5 47.2,84.6 51.5,89.4 			"/>
			<polygon class="st11" points="72.8,26.9 75.9,20.7 77.1,26.4 			"/>
			<polygon class="st11" points="76.8,34.3 84.2,32.8 82.6,37.6 			"/>
			<polygon class="st11" points="80.9,46.1 86.3,47.6 81.5,51.8 			"/>
			<polygon class="st11" points="80.6,58.9 84.7,59.5 79.5,66.1 			"/>
			<polygon class="st11" points="78.5,88.9 82.1,91.2 77,94.8 			"/>
			<polygon class="st11" points="63.2,158.7 66.6,159.2 62.3,165.1 			"/>
			<polygon class="st11" points="62.9,175.9 66,178.9 60.7,183.3 			"/>
			<polygon class="st3" points="52.5,132.4 48.2,133.8 51,138.8 			"/>
			<polygon class="st3" points="52.4,147.4 46.8,150.7 51.8,151.7 			"/>
			<polygon class="st11" points="64.3,124.8 69.5,128.8 64.9,129.8 			"/>
			<polygon class="st11" points="63.8,137.9 69.1,141.3 64.2,146.2 			"/>
			<polygon class="st11" points="74,106.1 77.7,109.6 70.7,111.7 			"/>
			<polygon class="st11" points="81.9,70.7 84.1,77.2 78.1,76.4 			"/>
			<polygon class="st3" points="45.4,102.2 52,100.3 47.6,109 			"/>
		</g>
	</g>
</g>
</svg>
