<?xml version="1.0" encoding="utf-8"?>
<!-- Generator: Adobe Illustrator 19.0.1, SVG Export Plug-In . SVG Version: 6.00 Build 0)  -->
<svg version="1.1" xmlns="http://www.w3.org/2000/svg" xmlns:xlink="http://www.w3.org/1999/xlink" x="0px" y="0px"
	 viewBox="0 0 684.4 199.5" style="enable-background:new 0 0 684.4 199.5;" xml:space="preserve">
<style type="text/css">
	.st0{fill:none;}
	.st1{fill:none;stroke:#201600;stroke-width:0.3;}
	.st2{fill:none;stroke:#201600;stroke-width:0.3;stroke-linecap:square;}
	.st3{fill:#161342;}
	.st4{fill:#28235D;}
	.st5{fill:#443B96;}
	.st6{fill:#9289BE;}
	.st7{fill:#B0A9D2;}
	.st8{fill:#E25CA1;}
	.st9{fill:#EAA2C7;}
	.st10{fill:#53B0A6;}
	.st11{fill:#4EBFAB;}
	.st12{fill:#FFFFFF;}
	.st13{fill:#4FC0AC;}
	.st14{fill:url(#SVGID_1_);}
	.st15{fill:url(#SVGID_2_);}
	.st16{fill:url(#);}
	.st17{fill:url(#SVGID_3_);}
	.st18{fill:url(#SVGID_4_);}
	.st19{fill:url(#SVGID_5_);}
	.st20{fill:url(#USGS_8_Sewage_Disposal);}
	.st21{fill:url(#SVGID_6_);}
	.st22{fill:url(#SVGID_7_);}
	.st23{fill:url(#SVGID_8_);}
	.st24{fill:url(#SVGID_9_);}
	.st25{fill:url(#SVGID_11_);}
	.st26{clip-path:url(#SVGID_13_);}
	.st27{clip-path:url(#SVGID_15_);}
	.st28{fill:none;stroke:#FFFFFF;stroke-width:0.3;stroke-linecap:square;stroke-linejoin:bevel;}
	.st29{clip-path:url(#SVGID_17_);}
	.st30{clip-path:url(#SVGID_19_);}
	.st31{clip-path:url(#SVGID_20_);}
	.st32{fill:url(#SVGID_22_);}
	.st33{fill:url(#SVGID_24_);}
	.st34{clip-path:url(#SVGID_26_);}
	.st35{clip-path:url(#SVGID_28_);}
	.st36{clip-path:url(#SVGID_30_);}
	.st37{clip-path:url(#SVGID_32_);}
	.st38{clip-path:url(#SVGID_34_);}
	.st39{clip-path:url(#SVGID_36_);}
	.st40{clip-path:url(#SVGID_38_);fill:none;stroke:#FFFFFF;stroke-width:0.3;stroke-linecap:square;stroke-linejoin:bevel;}
	.st41{clip-path:url(#SVGID_40_);}
	.st42{clip-path:url(#SVGID_42_);fill:none;stroke:#FFFFFF;stroke-width:0.3;stroke-linecap:square;stroke-linejoin:bevel;}
	.st43{clip-path:url(#SVGID_44_);}
	.st44{clip-path:url(#SVGID_46_);fill:none;stroke:#FFFFFF;stroke-width:0.3;stroke-linecap:square;stroke-linejoin:bevel;}
	.st45{clip-path:url(#SVGID_48_);fill:none;stroke:#FFFFFF;stroke-width:0.3;stroke-linecap:square;stroke-linejoin:bevel;}
	.st46{clip-path:url(#SVGID_50_);}
	.st47{clip-path:url(#SVGID_52_);fill:none;stroke:#FFFFFF;stroke-width:0.3;stroke-linecap:square;stroke-linejoin:bevel;}
	.st48{clip-path:url(#SVGID_54_);}
	.st49{clip-path:url(#SVGID_56_);fill:none;stroke:#FFFFFF;stroke-width:0.3;stroke-linecap:square;stroke-linejoin:bevel;}
	.st50{clip-path:url(#SVGID_58_);}
	.st51{clip-path:url(#SVGID_60_);fill:none;stroke:#FFFFFF;stroke-width:0.3;stroke-linecap:square;stroke-linejoin:bevel;}
	.st52{clip-path:url(#SVGID_62_);}
	.st53{clip-path:url(#SVGID_64_);fill:none;stroke:#FFFFFF;stroke-width:0.3;stroke-linecap:square;stroke-linejoin:bevel;}
	.st54{clip-path:url(#SVGID_66_);fill:none;stroke:#FFFFFF;stroke-width:0.3;stroke-linecap:square;stroke-linejoin:bevel;}
	.st55{clip-path:url(#SVGID_68_);}
	.st56{clip-path:url(#SVGID_70_);fill:none;stroke:#FFFFFF;stroke-width:0.3;stroke-linecap:square;stroke-linejoin:bevel;}
	.st57{clip-path:url(#SVGID_72_);fill:none;stroke:#FFFFFF;stroke-width:0.3;stroke-linecap:square;stroke-linejoin:bevel;}
	.st58{clip-path:url(#SVGID_74_);}
	.st59{clip-path:url(#SVGID_76_);fill:none;stroke:#FFFFFF;stroke-width:0.3;stroke-linecap:square;stroke-linejoin:bevel;}
	.st60{clip-path:url(#SVGID_78_);}
	.st61{clip-path:url(#SVGID_80_);fill:none;stroke:#FFFFFF;stroke-width:0.3;stroke-linecap:square;stroke-linejoin:bevel;}
	.st62{clip-path:url(#SVGID_82_);fill:none;stroke:#FFFFFF;stroke-width:0.3;stroke-linecap:square;stroke-linejoin:bevel;}
	.st63{clip-path:url(#SVGID_84_);}
	.st64{clip-path:url(#SVGID_86_);fill:none;stroke:#FFFFFF;stroke-width:0.3;stroke-linecap:square;stroke-linejoin:bevel;}
	.st65{clip-path:url(#SVGID_88_);fill:none;stroke:#FFFFFF;stroke-width:0.3;stroke-linecap:square;stroke-linejoin:bevel;}
	.st66{clip-path:url(#SVGID_90_);}
	.st67{clip-path:url(#SVGID_92_);fill:none;stroke:#FFFFFF;stroke-width:0.3;stroke-linecap:square;stroke-linejoin:bevel;}
	.st68{clip-path:url(#SVGID_94_);fill:none;stroke:#FFFFFF;stroke-width:0.3;stroke-linecap:square;stroke-linejoin:bevel;}
	.st69{clip-path:url(#SVGID_96_);}
	.st70{clip-path:url(#SVGID_98_);fill:none;stroke:#FFFFFF;stroke-width:0.3;stroke-linecap:square;stroke-linejoin:bevel;}
	.st71{clip-path:url(#SVGID_100_);}
	.st72{clip-path:url(#SVGID_102_);fill:none;stroke:#FFFFFF;stroke-width:0.3;stroke-linecap:square;stroke-linejoin:bevel;}
	.st73{clip-path:url(#SVGID_104_);}
	.st74{clip-path:url(#SVGID_105_);fill:none;stroke:#FFFFFF;stroke-width:0.3;stroke-linecap:square;stroke-linejoin:bevel;}
	.st75{clip-path:url(#SVGID_106_);fill:none;stroke:#FFFFFF;stroke-width:0.3;stroke-linecap:square;stroke-linejoin:bevel;}
	.st76{fill:url(#SVGID_107_);}
	.st77{fill:url(#SVGID_108_);}
	.st78{fill:url(#SVGID_109_);}
	.st79{fill:url(#SVGID_110_);}
	.st80{fill:url(#SVGID_111_);}
	.st81{fill:url(#SVGID_112_);}
	.st82{fill:url(#SVGID_113_);}
	.st83{fill:url(#SVGID_114_);}
	.st84{fill:url(#SVGID_115_);}
	.st85{fill:url(#SVGID_116_);}
	.st86{fill:url(#SVGID_117_);}
	.st87{fill:url(#SVGID_118_);}
	.st88{fill:url(#SVGID_119_);}
	.st89{fill:url(#SVGID_120_);}
	.st90{fill:url(#SVGID_121_);}
	.st91{fill:url(#SVGID_122_);}
	.st92{fill:url(#SVGID_124_);}
	.st93{opacity:0;fill:none;stroke:#FFFFFF;stroke-width:3;stroke-miterlimit:10;}
	.st94{fill:url(#SVGID_126_);}
	.st95{fill:url(#SVGID_128_);}
	.st96{fill:url(#SVGID_130_);}
	.st97{fill:url(#SVGID_132_);}
	.st98{fill:url(#Hatching);}
	.st99{fill:url(#SVGID_133_);}
	.st100{fill:url(#SVGID_135_);}
	.st101{fill:none;stroke:#28235D;stroke-width:3;stroke-miterlimit:10;}
	.st102{fill:#EAA2C7;stroke:#28235D;stroke-width:3;stroke-miterlimit:10;}
	.st103{fill:#28235D;stroke:#28235D;stroke-miterlimit:10;}
	.st104{fill:url(#SVGID_137_);}
	.st105{fill:url(#SVGID_139_);}
	.st106{fill:url(#SVGID_141_);}
	.st107{fill:url(#SVGID_143_);}
	.st108{fill:url(#SVGID_145_);}
	.st109{fill:url(#SVGID_147_);}
	.st110{fill:url(#SVGID_149_);}
	.st111{fill:url(#SVGID_151_);}
	.st112{fill:url(#SVGID_153_);}
	.st113{fill:url(#SVGID_155_);}
	.st114{fill:url(#SVGID_157_);}
	.st115{fill:url(#SVGID_159_);}
	.st116{fill:url(#SVGID_161_);}
	.st117{fill:url(#SVGID_163_);}
	.st118{fill:url(#SVGID_165_);}
	.st119{fill:url(#SVGID_167_);}
	.st120{clip-path:url(#SVGID_169_);}
	.st121{clip-path:url(#SVGID_171_);}
	.st122{clip-path:url(#SVGID_173_);}
	.st123{clip-path:url(#SVGID_175_);}
	.st124{clip-path:url(#SVGID_177_);}
	.st125{fill:url(#SVGID_179_);}
	.st126{fill:url(#SVGID_181_);}
	.st127{clip-path:url(#SVGID_183_);}
	.st128{clip-path:url(#SVGID_185_);}
	.st129{clip-path:url(#SVGID_187_);}
	.st130{clip-path:url(#SVGID_189_);}
	.st131{clip-path:url(#SVGID_191_);}
	.st132{clip-path:url(#SVGID_193_);}
	.st133{clip-path:url(#SVGID_195_);fill:none;stroke:#FFFFFF;stroke-width:0.3;stroke-linecap:square;stroke-linejoin:bevel;}
	.st134{clip-path:url(#SVGID_197_);}
	.st135{clip-path:url(#SVGID_199_);fill:none;stroke:#FFFFFF;stroke-width:0.3;stroke-linecap:square;stroke-linejoin:bevel;}
	.st136{clip-path:url(#SVGID_201_);}
	.st137{clip-path:url(#SVGID_203_);fill:none;stroke:#FFFFFF;stroke-width:0.3;stroke-linecap:square;stroke-linejoin:bevel;}
	.st138{clip-path:url(#SVGID_205_);fill:none;stroke:#FFFFFF;stroke-width:0.3;stroke-linecap:square;stroke-linejoin:bevel;}
	.st139{clip-path:url(#SVGID_207_);}
	.st140{clip-path:url(#SVGID_209_);fill:none;stroke:#FFFFFF;stroke-width:0.3;stroke-linecap:square;stroke-linejoin:bevel;}
	.st141{clip-path:url(#SVGID_211_);}
	.st142{clip-path:url(#SVGID_213_);fill:none;stroke:#FFFFFF;stroke-width:0.3;stroke-linecap:square;stroke-linejoin:bevel;}
	.st143{clip-path:url(#SVGID_215_);}
	.st144{clip-path:url(#SVGID_217_);fill:none;stroke:#FFFFFF;stroke-width:0.3;stroke-linecap:square;stroke-linejoin:bevel;}
	.st145{clip-path:url(#SVGID_218_);}
	.st146{clip-path:url(#SVGID_219_);fill:none;stroke:#FFFFFF;stroke-width:0.3;stroke-linecap:square;stroke-linejoin:bevel;}
	.st147{clip-path:url(#SVGID_220_);fill:none;stroke:#FFFFFF;stroke-width:0.3;stroke-linecap:square;stroke-linejoin:bevel;}
	.st148{clip-path:url(#SVGID_221_);}
	.st149{clip-path:url(#SVGID_222_);fill:none;stroke:#FFFFFF;stroke-width:0.3;stroke-linecap:square;stroke-linejoin:bevel;}
	.st150{clip-path:url(#SVGID_223_);fill:none;stroke:#FFFFFF;stroke-width:0.3;stroke-linecap:square;stroke-linejoin:bevel;}
	.st151{clip-path:url(#SVGID_224_);}
	.st152{clip-path:url(#SVGID_225_);fill:none;stroke:#FFFFFF;stroke-width:0.3;stroke-linecap:square;stroke-linejoin:bevel;}
	.st153{clip-path:url(#SVGID_226_);}
	.st154{clip-path:url(#SVGID_227_);fill:none;stroke:#FFFFFF;stroke-width:0.3;stroke-linecap:square;stroke-linejoin:bevel;}
	.st155{clip-path:url(#SVGID_228_);fill:none;stroke:#FFFFFF;stroke-width:0.3;stroke-linecap:square;stroke-linejoin:bevel;}
	.st156{clip-path:url(#SVGID_229_);}
	.st157{clip-path:url(#SVGID_230_);fill:none;stroke:#FFFFFF;stroke-width:0.3;stroke-linecap:square;stroke-linejoin:bevel;}
	.st158{clip-path:url(#SVGID_231_);fill:none;stroke:#FFFFFF;stroke-width:0.3;stroke-linecap:square;stroke-linejoin:bevel;}
	.st159{clip-path:url(#SVGID_232_);}
	.st160{clip-path:url(#SVGID_233_);fill:none;stroke:#FFFFFF;stroke-width:0.3;stroke-linecap:square;stroke-linejoin:bevel;}
	.st161{clip-path:url(#SVGID_234_);fill:none;stroke:#FFFFFF;stroke-width:0.3;stroke-linecap:square;stroke-linejoin:bevel;}
	.st162{clip-path:url(#SVGID_235_);}
	.st163{clip-path:url(#SVGID_236_);fill:none;stroke:#FFFFFF;stroke-width:0.3;stroke-linecap:square;stroke-linejoin:bevel;}
	.st164{clip-path:url(#SVGID_237_);}
	.st165{clip-path:url(#SVGID_238_);fill:none;stroke:#FFFFFF;stroke-width:0.3;stroke-linecap:square;stroke-linejoin:bevel;}
	.st166{clip-path:url(#SVGID_239_);}
	.st167{clip-path:url(#SVGID_240_);fill:none;stroke:#FFFFFF;stroke-width:0.3;stroke-linecap:square;stroke-linejoin:bevel;}
	.st168{clip-path:url(#SVGID_241_);fill:none;stroke:#FFFFFF;stroke-width:0.3;stroke-linecap:square;stroke-linejoin:bevel;}
	.st169{fill:url(#SVGID_242_);}
	.st170{fill:url(#SVGID_243_);}
	.st171{fill:url(#SVGID_244_);}
	.st172{fill:url(#SVGID_245_);}
	.st173{fill:url(#SVGID_246_);}
	.st174{fill:url(#SVGID_247_);}
	.st175{fill:url(#SVGID_248_);}
	.st176{fill:url(#SVGID_249_);}
	.st177{fill:url(#SVGID_250_);}
	.st178{fill:url(#SVGID_251_);}
	.st179{fill:url(#SVGID_252_);}
	.st180{fill:url(#SVGID_253_);}
</style>
<pattern  x="1654.8" y="-963.1" width="72" height="72" patternUnits="userSpaceOnUse" id="Hatching" viewBox="3 -74.1 72 72" style="overflow:visible;">
	<g>
		<polygon class="st0" points="3,-74.1 75,-74.1 75,-2.1 3,-2.1 		"/>
		<g>
			<line class="st1" x1="71" y1="-1.3" x2="72.1" y2="-4.2"/>
			<line class="st1" x1="66.2" y1="-1.1" x2="65.5" y2="-4.4"/>
			<line class="st1" x1="50.9" y1="-0.3" x2="51.1" y2="-3.3"/>
			<line class="st1" x1="35.2" y1="-1.9" x2="33.8" y2="-3.9"/>
			<line class="st1" x1="19" y1="-1.7" x2="20.3" y2="-3.7"/>
			<line class="st1" x1="7.9" y1="-0.4" x2="6.2" y2="-2.7"/>
			<line class="st1" x1="58.5" y1="-0.1" x2="60.5" y2="-3.1"/>
		</g>
		<g>
			<line class="st1" x1="77.8" y1="-50.1" x2="74.8" y2="-50.1"/>
			<line class="st1" x1="76.8" y1="-34.4" x2="74.8" y2="-32.9"/>
		</g>
		<g>
			<line class="st1" x1="8.8" y1="-63.4" x2="6" y2="-61.4"/>
			<line class="st1" x1="7.3" y1="-7.1" x2="5" y2="-5.4"/>
			<line class="st1" x1="76.3" y1="-67.1" x2="73" y2="-66.4"/>
			<line class="st1" x1="75" y1="-55.4" x2="72.5" y2="-53.6"/>
			<line class="st1" x1="77.8" y1="-50.1" x2="74.8" y2="-50.1"/>
			<line class="st1" x1="74.5" y1="-42.6" x2="71.8" y2="-44.4"/>
			<line class="st1" x1="76.8" y1="-34.4" x2="74.8" y2="-32.9"/>
			<line class="st1" x1="74.3" y1="-22.4" x2="71.5" y2="-24.6"/>
			<line class="st1" x1="76.3" y1="-11.4" x2="72" y2="-12.1"/>
			<line class="st1" x1="66.5" y1="-13.1" x2="64.3" y2="-11.4"/>
			<line class="st1" x1="74.8" y1="-29.1" x2="71.8" y2="-29.1"/>
			<line class="st1" x1="61" y1="-56.6" x2="59.1" y2="-59.4"/>
			<line class="st1" x1="31" y1="-58.1" x2="29.4" y2="-60.7"/>
			<line class="st1" x1="46.1" y1="-62.5" x2="47.9" y2="-65.2"/>
			<line class="st1" x1="71" y1="-1.3" x2="72.1" y2="-4.2"/>
			<line class="st1" x1="66.2" y1="-1.1" x2="65.5" y2="-4.4"/>
			<line class="st1" x1="60" y1="-26.1" x2="58.1" y2="-28.9"/>
			<line class="st1" x1="51.7" y1="-54.5" x2="50" y2="-57.1"/>
			<line class="st1" x1="50.9" y1="-0.3" x2="51.1" y2="-3.3"/>
			<line class="st1" x1="43.6" y1="-3.8" x2="45.4" y2="-6.5"/>
			<line class="st1" x1="35.2" y1="-1.9" x2="33.8" y2="-3.9"/>
			<line class="st1" x1="53.3" y1="-33.3" x2="55.7" y2="-36"/>
			<line class="st1" x1="19" y1="-1.7" x2="20.3" y2="-3.7"/>
			<line class="st1" x1="12.3" y1="-3.2" x2="13.2" y2="-7.4"/>
			<line class="st1" x1="7.9" y1="-0.4" x2="6.2" y2="-2.7"/>
			<line class="st1" x1="30.1" y1="-4.1" x2="30.2" y2="-7.1"/>
			<line class="st1" x1="10.3" y1="-68.9" x2="13.8" y2="-67.4"/>
			<line class="st1" x1="7.5" y1="-53.4" x2="7.8" y2="-56.6"/>
			<line class="st1" x1="11" y1="-30.4" x2="12.5" y2="-26.6"/>
			<line class="st1" x1="8.3" y1="-35.9" x2="10.5" y2="-39.6"/>
			<line class="st1" x1="32.3" y1="-69.6" x2="30" y2="-67.1"/>
			<line class="st1" x1="36.5" y1="-69.6" x2="39.8" y2="-66.9"/>
			<line class="st1" x1="53.3" y1="-69.6" x2="56.5" y2="-67.6"/>
			<line class="st1" x1="55.5" y1="-63.6" x2="53.5" y2="-60.4"/>
			<line class="st1" x1="62.5" y1="-64.9" x2="67.5" y2="-67.1"/>
			<line class="st1" x1="70" y1="-61.4" x2="67.5" y2="-59.6"/>
			<line class="st1" x1="21.8" y1="-69.4" x2="21.8" y2="-66.4"/>
			<line class="st1" x1="18.8" y1="-64.4" x2="15.5" y2="-63.9"/>
			<line class="st1" x1="23" y1="-59.9" x2="23.5" y2="-56.6"/>
			<line class="st1" x1="24" y1="-64.4" x2="27.5" y2="-65.1"/>
			<line class="st1" x1="12.3" y1="-52.6" x2="15" y2="-54.6"/>
			<line class="st1" x1="10.5" y1="-10.1" x2="10.8" y2="-14.1"/>
			<line class="st1" x1="10.3" y1="-18.4" x2="12.5" y2="-20.9"/>
			<line class="st1" x1="24.3" y1="-8.4" x2="21.8" y2="-11.9"/>
			<line class="st1" x1="32.8" y1="-45.6" x2="30.3" y2="-43.9"/>
			<line class="st1" x1="60.8" y1="-40.4" x2="58" y2="-41.9"/>
			<line class="st1" x1="29.8" y1="-34.1" x2="26" y2="-34.9"/>
			<line class="st1" x1="34.5" y1="-24.6" x2="32.5" y2="-23.1"/>
			<line class="st1" x1="32" y1="-12.6" x2="29.3" y2="-14.9"/>
			<line class="st1" x1="35.3" y1="-8.4" x2="33.3" y2="-9.6"/>
			<line class="st1" x1="32.5" y1="-19.4" x2="29.5" y2="-19.4"/>
			<line class="st1" x1="42.8" y1="-55.1" x2="40.3" y2="-53.4"/>
			<line class="st1" x1="45.5" y1="-49.9" x2="42.5" y2="-49.9"/>
			<line class="st1" x1="42.3" y1="-42.4" x2="39.5" y2="-44.1"/>
			<line class="st1" x1="41.5" y1="-31.6" x2="40.8" y2="-29.1"/>
			<line class="st1" x1="42" y1="-22.1" x2="39.3" y2="-24.4"/>
			<line class="st1" x1="42.5" y1="-14.1" x2="40.5" y2="-15.4"/>
			<line class="st1" x1="66" y1="-29.6" x2="63" y2="-29.6"/>
			<line class="st1" x1="25.3" y1="-31.1" x2="27.8" y2="-29.4"/>
			<line class="st1" x1="30" y1="-53.6" x2="33" y2="-53.6"/>
			<line class="st1" x1="17.8" y1="-39.4" x2="20.3" y2="-37.6"/>
			<line class="st1" x1="15" y1="-34.1" x2="18" y2="-34.1"/>
			<line class="st1" x1="18.3" y1="-26.6" x2="21" y2="-28.4"/>
			<line class="st1" x1="50.3" y1="-41.1" x2="52.7" y2="-42.7"/>
			<line class="st1" x1="50.6" y1="-48.6" x2="53" y2="-46.8"/>
			<line class="st1" x1="57.7" y1="-52.6" x2="57.5" y2="-49.6"/>
			<line class="st1" x1="48.4" y1="-8.5" x2="51.4" y2="-8.4"/>
			<line class="st1" x1="49.4" y1="-14.4" x2="51.7" y2="-12.6"/>
			<line class="st1" x1="56.5" y1="-18.4" x2="57.6" y2="-15.3"/>
			<line class="st1" x1="51.3" y1="-30.6" x2="48.8" y2="-28.9"/>
			<line class="st1" x1="51" y1="-23.1" x2="47.8" y2="-24.1"/>
			<line class="st1" x1="60" y1="-7.6" x2="57.3" y2="-9.4"/>
			<line class="st1" x1="67.5" y1="-33.1" x2="64.8" y2="-34.9"/>
			<line class="st1" x1="65.3" y1="-22.1" x2="63.3" y2="-20.6"/>
			<line class="st1" x1="22.6" y1="-44.5" x2="25.7" y2="-44.4"/>
			<line class="st1" x1="23.6" y1="-50.4" x2="26" y2="-48.6"/>
			<line class="st1" x1="60.8" y1="-45.6" x2="63.5" y2="-45.1"/>
			<line class="st1" x1="18" y1="-18.4" x2="18.5" y2="-15.1"/>
			<line class="st1" x1="20" y1="-20.4" x2="23.5" y2="-21.1"/>
			<line class="st1" x1="35.8" y1="-61.4" x2="39.8" y2="-60.6"/>
			<line class="st1" x1="36.5" y1="-40.6" x2="37" y2="-37.1"/>
			<line class="st1" x1="67.5" y1="-51.1" x2="65" y2="-52.4"/>
			<line class="st1" x1="13" y1="-60.6" x2="16.3" y2="-57.9"/>
			<line class="st1" x1="7.8" y1="-44.6" x2="5.3" y2="-42.9"/>
			<line class="st1" x1="18.8" y1="-50.1" x2="16.8" y2="-48.6"/>
			<line class="st1" x1="44.3" y1="-69.3" x2="46.2" y2="-72"/>
			<line class="st1" x1="67.6" y1="-39" x2="69.4" y2="-41.7"/>
			<line class="st1" x1="36.8" y1="-47.8" x2="37.5" y2="-50.6"/>
			<line class="st1" x1="23.3" y1="-15.3" x2="24" y2="-18.1"/>
			<line class="st1" x1="34.8" y1="-31.4" x2="32.8" y2="-29.9"/>
			<line class="st1" x1="5.8" y1="-50.1" x2="2.8" y2="-50.1"/>
			<line class="st1" x1="4.8" y1="-34.4" x2="2.8" y2="-32.9"/>
			<line class="st1" x1="71" y1="-73.3" x2="72.1" y2="-76.2"/>
			<line class="st1" x1="66.2" y1="-73.1" x2="65.5" y2="-76.4"/>
			<line class="st1" x1="50.9" y1="-72.3" x2="51.1" y2="-75.3"/>
			<line class="st1" x1="35.2" y1="-73.9" x2="33.8" y2="-75.9"/>
			<line class="st1" x1="19" y1="-73.7" x2="20.3" y2="-75.7"/>
			<line class="st1" x1="7.9" y1="-72.4" x2="6.2" y2="-74.7"/>
			<line class="st1" x1="8.3" y1="-22.1" x2="4.5" y2="-22.9"/>
			<line class="st1" x1="71.4" y1="-16.8" x2="69.5" y2="-19.6"/>
			<line class="st1" x1="27" y1="-38.1" x2="27.7" y2="-40.9"/>
			<line class="st1" x1="47.8" y1="-37.1" x2="45.8" y2="-35.6"/>
			<line class="st1" x1="58.5" y1="-72.1" x2="60.5" y2="-75.1"/>
			<line class="st1" x1="58.5" y1="-0.1" x2="60.5" y2="-3.1"/>
		</g>
		<g>
			<line class="st1" x1="4.3" y1="-67.1" x2="1" y2="-66.4"/>
			<line class="st1" x1="3" y1="-55.4" x2="0.5" y2="-53.6"/>
			<line class="st1" x1="5.8" y1="-50.1" x2="2.8" y2="-50.1"/>
			<line class="st1" x1="4.8" y1="-34.4" x2="2.8" y2="-32.9"/>
			<line class="st1" x1="4.3" y1="-11.4" x2="0" y2="-12.1"/>
		</g>
		<g>
			<line class="st1" x1="71" y1="-73.3" x2="72.1" y2="-76.2"/>
			<line class="st1" x1="66.2" y1="-73.1" x2="65.5" y2="-76.4"/>
			<line class="st1" x1="50.9" y1="-72.3" x2="51.1" y2="-75.3"/>
			<line class="st1" x1="35.2" y1="-73.9" x2="33.8" y2="-75.9"/>
			<line class="st1" x1="19" y1="-73.7" x2="20.3" y2="-75.7"/>
			<line class="st1" x1="7.9" y1="-72.4" x2="6.2" y2="-74.7"/>
			<line class="st1" x1="58.5" y1="-72.1" x2="60.5" y2="-75.1"/>
		</g>
	</g>
</pattern>
<pattern  x="1654.8" y="-963.1" width="72" height="74.8" patternUnits="userSpaceOnUse" id="USGS_8_Sewage_Disposal" viewBox="72.2 -74.8 72 74.8" style="overflow:visible;">
	<g>
		<polygon class="st0" points="72.2,-74.8 144.2,-74.8 144.2,0 72.2,0 		"/>
		<g>
			<line class="st2" x1="144.2" y1="-0.8" x2="216.2" y2="-0.8"/>
			<line class="st2" x1="144.2" y1="-2.5" x2="216.2" y2="-2.5"/>
			<line class="st2" x1="144.2" y1="-4.3" x2="216.2" y2="-4.3"/>
			<line class="st2" x1="144.2" y1="-6" x2="216.2" y2="-6"/>
			<line class="st2" x1="144.2" y1="-7.7" x2="216.2" y2="-7.7"/>
			<line class="st2" x1="144.2" y1="-9.3" x2="216.2" y2="-9.3"/>
			<line class="st2" x1="144.2" y1="-11" x2="216.2" y2="-11"/>
			<line class="st2" x1="144.2" y1="-12.8" x2="216.2" y2="-12.8"/>
			<line class="st2" x1="144.2" y1="-14.5" x2="216.2" y2="-14.5"/>
			<line class="st2" x1="144.2" y1="-16.2" x2="216.2" y2="-16.2"/>
			<line class="st2" x1="144.2" y1="-17.8" x2="216.2" y2="-17.8"/>
			<line class="st2" x1="144.2" y1="-19.5" x2="216.2" y2="-19.5"/>
			<line class="st2" x1="144.2" y1="-21.3" x2="216.2" y2="-21.3"/>
			<line class="st2" x1="144.2" y1="-22.9" x2="216.2" y2="-22.9"/>
			<line class="st2" x1="144.2" y1="-24.6" x2="216.2" y2="-24.6"/>
			<line class="st2" x1="144.2" y1="-26.3" x2="216.2" y2="-26.3"/>
			<line class="st2" x1="144.2" y1="-28" x2="216.2" y2="-28"/>
			<line class="st2" x1="144.2" y1="-29.7" x2="216.2" y2="-29.7"/>
			<line class="st2" x1="144.2" y1="-31.4" x2="216.2" y2="-31.4"/>
			<line class="st2" x1="144.2" y1="-33.1" x2="216.2" y2="-33.1"/>
			<line class="st2" x1="144.2" y1="-34.8" x2="216.2" y2="-34.8"/>
			<line class="st2" x1="144.2" y1="-36.5" x2="216.2" y2="-36.5"/>
			<line class="st2" x1="144.2" y1="-38.2" x2="216.2" y2="-38.2"/>
			<line class="st2" x1="144.2" y1="-39.9" x2="216.2" y2="-39.9"/>
			<line class="st2" x1="144.2" y1="-41.6" x2="216.2" y2="-41.6"/>
			<line class="st2" x1="144.2" y1="-43.3" x2="216.2" y2="-43.3"/>
			<line class="st2" x1="144.2" y1="-45" x2="216.2" y2="-45"/>
			<line class="st2" x1="144.2" y1="-46.7" x2="216.2" y2="-46.7"/>
			<line class="st2" x1="144.2" y1="-48.4" x2="216.2" y2="-48.4"/>
			<line class="st2" x1="144.2" y1="-50.1" x2="216.2" y2="-50.1"/>
			<line class="st2" x1="144.2" y1="-51.8" x2="216.2" y2="-51.8"/>
			<line class="st2" x1="144.2" y1="-53.5" x2="216.2" y2="-53.5"/>
			<line class="st2" x1="144.2" y1="-55.2" x2="216.2" y2="-55.2"/>
			<line class="st2" x1="144.2" y1="-56.9" x2="216.2" y2="-56.9"/>
			<line class="st2" x1="144.2" y1="-58.6" x2="216.2" y2="-58.6"/>
			<line class="st2" x1="144.2" y1="-60.3" x2="216.2" y2="-60.3"/>
			<line class="st2" x1="144.2" y1="-62" x2="216.2" y2="-62"/>
			<line class="st2" x1="144.2" y1="-63.7" x2="216.2" y2="-63.7"/>
			<line class="st2" x1="144.2" y1="-65.4" x2="216.2" y2="-65.4"/>
			<line class="st2" x1="144.2" y1="-67.1" x2="216.2" y2="-67.1"/>
			<line class="st2" x1="144.2" y1="-68.8" x2="216.2" y2="-68.8"/>
			<line class="st2" x1="144.2" y1="-70.5" x2="216.2" y2="-70.5"/>
			<line class="st2" x1="144.2" y1="-72.2" x2="216.2" y2="-72.2"/>
			<line class="st2" x1="144.2" y1="-73.9" x2="216.2" y2="-73.9"/>
		</g>
		<g>
			<line class="st2" x1="72.2" y1="-0.8" x2="144.2" y2="-0.8"/>
			<line class="st2" x1="72.2" y1="-2.5" x2="144.2" y2="-2.5"/>
			<line class="st2" x1="72.2" y1="-4.3" x2="144.2" y2="-4.3"/>
			<line class="st2" x1="72.2" y1="-6" x2="144.2" y2="-6"/>
			<line class="st2" x1="72.2" y1="-7.7" x2="144.2" y2="-7.7"/>
			<line class="st2" x1="72.2" y1="-9.3" x2="144.2" y2="-9.3"/>
			<line class="st2" x1="72.2" y1="-11" x2="144.2" y2="-11"/>
			<line class="st2" x1="72.2" y1="-12.8" x2="144.2" y2="-12.8"/>
			<line class="st2" x1="72.2" y1="-14.5" x2="144.2" y2="-14.5"/>
			<line class="st2" x1="72.2" y1="-16.2" x2="144.2" y2="-16.2"/>
			<line class="st2" x1="72.2" y1="-17.8" x2="144.2" y2="-17.8"/>
			<line class="st2" x1="72.2" y1="-19.5" x2="144.2" y2="-19.5"/>
			<line class="st2" x1="72.2" y1="-21.3" x2="144.2" y2="-21.3"/>
			<line class="st2" x1="72.2" y1="-22.9" x2="144.2" y2="-22.9"/>
			<line class="st2" x1="72.2" y1="-24.6" x2="144.2" y2="-24.6"/>
			<line class="st2" x1="72.2" y1="-26.3" x2="144.2" y2="-26.3"/>
			<line class="st2" x1="72.2" y1="-28" x2="144.2" y2="-28"/>
			<line class="st2" x1="72.2" y1="-29.7" x2="144.2" y2="-29.7"/>
			<line class="st2" x1="72.2" y1="-31.4" x2="144.2" y2="-31.4"/>
			<line class="st2" x1="72.2" y1="-33.1" x2="144.2" y2="-33.1"/>
			<line class="st2" x1="72.2" y1="-34.8" x2="144.2" y2="-34.8"/>
			<line class="st2" x1="72.2" y1="-36.5" x2="144.2" y2="-36.5"/>
			<line class="st2" x1="72.2" y1="-38.2" x2="144.2" y2="-38.2"/>
			<line class="st2" x1="72.2" y1="-39.9" x2="144.2" y2="-39.9"/>
			<line class="st2" x1="72.2" y1="-41.6" x2="144.2" y2="-41.6"/>
			<line class="st2" x1="72.2" y1="-43.3" x2="144.2" y2="-43.3"/>
			<line class="st2" x1="72.2" y1="-45" x2="144.2" y2="-45"/>
			<line class="st2" x1="72.2" y1="-46.7" x2="144.2" y2="-46.7"/>
			<line class="st2" x1="72.2" y1="-48.4" x2="144.2" y2="-48.4"/>
			<line class="st2" x1="72.2" y1="-50.1" x2="144.2" y2="-50.1"/>
			<line class="st2" x1="72.2" y1="-51.8" x2="144.2" y2="-51.8"/>
			<line class="st2" x1="72.2" y1="-53.5" x2="144.2" y2="-53.5"/>
			<line class="st2" x1="72.2" y1="-55.2" x2="144.2" y2="-55.2"/>
			<line class="st2" x1="72.2" y1="-56.9" x2="144.2" y2="-56.9"/>
			<line class="st2" x1="72.2" y1="-58.6" x2="144.2" y2="-58.6"/>
			<line class="st2" x1="72.2" y1="-60.3" x2="144.2" y2="-60.3"/>
			<line class="st2" x1="72.2" y1="-62" x2="144.2" y2="-62"/>
			<line class="st2" x1="72.2" y1="-63.7" x2="144.2" y2="-63.7"/>
			<line class="st2" x1="72.2" y1="-65.4" x2="144.2" y2="-65.4"/>
			<line class="st2" x1="72.2" y1="-67.1" x2="144.2" y2="-67.1"/>
			<line class="st2" x1="72.2" y1="-68.8" x2="144.2" y2="-68.8"/>
			<line class="st2" x1="72.2" y1="-70.5" x2="144.2" y2="-70.5"/>
			<line class="st2" x1="72.2" y1="-72.2" x2="144.2" y2="-72.2"/>
			<line class="st2" x1="72.2" y1="-73.9" x2="144.2" y2="-73.9"/>
		</g>
		<g>
			<line class="st2" x1="0.2" y1="-0.8" x2="72.2" y2="-0.8"/>
			<line class="st2" x1="0.2" y1="-2.5" x2="72.2" y2="-2.5"/>
			<line class="st2" x1="0.2" y1="-4.3" x2="72.2" y2="-4.3"/>
			<line class="st2" x1="0.2" y1="-6" x2="72.2" y2="-6"/>
			<line class="st2" x1="0.2" y1="-7.7" x2="72.2" y2="-7.7"/>
			<line class="st2" x1="0.2" y1="-9.3" x2="72.2" y2="-9.3"/>
			<line class="st2" x1="0.2" y1="-11" x2="72.2" y2="-11"/>
			<line class="st2" x1="0.2" y1="-12.8" x2="72.2" y2="-12.8"/>
			<line class="st2" x1="0.2" y1="-14.5" x2="72.2" y2="-14.5"/>
			<line class="st2" x1="0.2" y1="-16.2" x2="72.2" y2="-16.2"/>
			<line class="st2" x1="0.2" y1="-17.8" x2="72.2" y2="-17.8"/>
			<line class="st2" x1="0.2" y1="-19.5" x2="72.2" y2="-19.5"/>
			<line class="st2" x1="0.2" y1="-21.3" x2="72.2" y2="-21.3"/>
			<line class="st2" x1="0.2" y1="-22.9" x2="72.2" y2="-22.9"/>
			<line class="st2" x1="0.2" y1="-24.6" x2="72.2" y2="-24.6"/>
			<line class="st2" x1="0.2" y1="-26.3" x2="72.2" y2="-26.3"/>
			<line class="st2" x1="0.2" y1="-28" x2="72.2" y2="-28"/>
			<line class="st2" x1="0.2" y1="-29.7" x2="72.2" y2="-29.7"/>
			<line class="st2" x1="0.2" y1="-31.4" x2="72.2" y2="-31.4"/>
			<line class="st2" x1="0.2" y1="-33.1" x2="72.2" y2="-33.1"/>
			<line class="st2" x1="0.2" y1="-34.8" x2="72.2" y2="-34.8"/>
			<line class="st2" x1="0.2" y1="-36.5" x2="72.2" y2="-36.5"/>
			<line class="st2" x1="0.2" y1="-38.2" x2="72.2" y2="-38.2"/>
			<line class="st2" x1="0.2" y1="-39.9" x2="72.2" y2="-39.9"/>
			<line class="st2" x1="0.2" y1="-41.6" x2="72.2" y2="-41.6"/>
			<line class="st2" x1="0.2" y1="-43.3" x2="72.2" y2="-43.3"/>
			<line class="st2" x1="0.2" y1="-45" x2="72.2" y2="-45"/>
			<line class="st2" x1="0.2" y1="-46.7" x2="72.2" y2="-46.7"/>
			<line class="st2" x1="0.2" y1="-48.4" x2="72.2" y2="-48.4"/>
			<line class="st2" x1="0.2" y1="-50.1" x2="72.2" y2="-50.1"/>
			<line class="st2" x1="0.2" y1="-51.8" x2="72.2" y2="-51.8"/>
			<line class="st2" x1="0.2" y1="-53.5" x2="72.2" y2="-53.5"/>
			<line class="st2" x1="0.2" y1="-55.2" x2="72.2" y2="-55.2"/>
			<line class="st2" x1="0.2" y1="-56.9" x2="72.2" y2="-56.9"/>
			<line class="st2" x1="0.2" y1="-58.6" x2="72.2" y2="-58.6"/>
			<line class="st2" x1="0.2" y1="-60.3" x2="72.2" y2="-60.3"/>
			<line class="st2" x1="0.2" y1="-62" x2="72.2" y2="-62"/>
			<line class="st2" x1="0.2" y1="-63.7" x2="72.2" y2="-63.7"/>
			<line class="st2" x1="0.2" y1="-65.4" x2="72.2" y2="-65.4"/>
			<line class="st2" x1="0.2" y1="-67.1" x2="72.2" y2="-67.1"/>
			<line class="st2" x1="0.2" y1="-68.8" x2="72.2" y2="-68.8"/>
			<line class="st2" x1="0.2" y1="-70.5" x2="72.2" y2="-70.5"/>
			<line class="st2" x1="0.2" y1="-72.2" x2="72.2" y2="-72.2"/>
			<line class="st2" x1="0.2" y1="-73.9" x2="72.2" y2="-73.9"/>
		</g>
	</g>
</pattern>
<g id="reference">
</g>
<g id="color">
</g>
<g id="background">
</g>
<g id="plant">
</g>
<g id="food">
</g>
<g id="actors">
</g>
<g id="Слой_7">
	<g>
		<g>
			<polygon class="st5" points="23.7,57.9 37.6,63.5 49.1,55 43.8,49.7 33.3,55 25.9,52 			"/>
			
				<pattern  id="SVGID_1_" xlink:href="#USGS_8_Sewage_Disposal" patternTransform="matrix(4.489659e-011 -1 1 4.489659e-011 -2555.7676 -15658.7813)">
			</pattern>
			<polygon class="st14" points="23.7,57.9 37.6,63.5 49.1,55 43.8,49.7 33.3,55 25.9,52 			"/>
		</g>
		<polygon class="st12" points="81.9,144.3 58.1,124.2 54.1,49.2 33.3,41.9 16.2,55 34.8,49.2 50.1,50 51.1,130.7 81.9,153.3 		"/>
		<polygon class="st12" points="593.9,149.5 655.9,118.3 541.1,38.4 427.8,79.5 427.8,84.5 541.1,49.2 646.9,118.3 		"/>
		<polygon class="st12" points="349.4,118.3 403.9,142.9 337.9,187.8 242.9,138 145.9,175.7 250.9,127.4 335.9,180.8 389.9,142.1 
			312.3,111.1 		"/>
		<g>
			<g>
				<polygon class="st5" points="92.4,134.9 73.6,148.5 92.4,168.2 145.9,175.7 186.6,148.5 165.6,134.9 135.6,154 103,150.2 				
					"/>
				
					<pattern  id="SVGID_2_" xlink:href="#USGS_8_Sewage_Disposal" patternTransform="matrix(4.489659e-011 -1 1 4.489659e-011 -2560.6814 -15682.3311)">
				</pattern>
				<polygon class="st15" points="92.4,134.9 73.6,148.5 92.4,168.2 145.9,175.7 186.6,148.5 165.6,134.9 135.6,154 103,150.2 				
					"/>
			</g>
			<g>
				<polygon class="st6" points="92.4,146.2 92.4,60.4 107,33.1 131.5,17.7 149.8,31.6 165.6,63.9 165.6,148.5 139.6,163.2 
					105.9,160 				"/>
				
					<pattern  id="SVGID_3_" xlink:href="#Hatching" patternTransform="matrix(4.489659e-011 -1 1 4.489659e-011 -2656.3596 -15744.4014)">
				</pattern>
				<polygon class="st17" points="92.4,146.2 92.4,60.4 107,33.1 131.5,17.7 149.8,31.6 165.6,63.9 165.6,148.5 139.6,163.2 
					105.9,160 				"/>
			</g>
			<polygon class="st6" points="92.4,146.2 92.4,60.4 107,33.1 131.5,17.7 149.8,31.6 154.8,41.9 130.1,65.2 105.9,160 			"/>
			<polygon class="st5" points="87,140 79.5,149.4 92.4,165.5 129,170.5 100,160 			"/>
			<polygon class="st12" points="129,23.3 110,38.4 96.5,61.5 96.5,144 108,150.2 104.2,61.5 115.1,38.4 			"/>
		</g>
		<g>
			<g>
				<polygon class="st5" points="551.2,146.3 564.5,153.3 572.6,153.3 593.9,149.5 588.6,141.1 556.6,138.6 				"/>
				
					<pattern  id="SVGID_4_" xlink:href="#USGS_8_Sewage_Disposal" patternTransform="matrix(4.489659e-011 -1 1 4.489659e-011 -2557.7322 -15681.3096)">
				</pattern>
				<polygon class="st18" points="551.2,146.3 564.5,153.3 572.6,153.3 593.9,149.5 588.6,141.1 556.6,138.6 				"/>
			</g>
			<polygon class="st6" points="556.6,142.1 556.6,125 571.6,116.4 588.6,132.3 588.6,146.3 572.6,149.5 			"/>
			<polygon class="st12" points="569.5,121 560.5,127 560.5,138.9 569.5,129.9 572.6,123.5 			"/>
			<pattern  id="SVGID_5_" xlink:href="#Hatching" patternTransform="matrix(1 0 0 1 -122.7842 -0.9401)">
			</pattern>
			<polygon class="st19" points="576.5,121 588.6,132.3 588.6,146.3 572.6,149.5 562.8,144.9 575.7,133 			"/>
		</g>
		<g>
			<g>
				<polygon class="st5" points="275.4,103.9 349.4,118.3 416.5,107.2 436.4,85.5 421,74.8 356.8,91.4 278.1,78.3 264.4,91.4 				
					"/>
				
					<pattern  id="SVGID_6_" xlink:href="#USGS_8_Sewage_Disposal" patternTransform="matrix(4.489659e-011 -1 1 4.489659e-011 -2580.842 -15664.7764)">
				</pattern>
				<polygon class="st21" points="275.4,103.9 349.4,118.3 416.5,107.2 436.4,85.5 421,74.8 356.8,91.4 278.1,78.3 264.4,91.4 				
					"/>
			</g>
			<polygon class="st6" points="275.4,85.5 289.4,47.4 344.4,23.3 416.5,54.4 423.4,85.5 356.8,107.2 			"/>
		</g>
		<polygon class="st12" points="278.1,78.3 203.1,49.2 270.9,20.8 288.9,28.1 268.9,25.1 217.9,49.2 		"/>
		<polygon class="st6" points="26.8,55 25.9,41.9 37.6,33 49.1,44 43.8,55 34.3,57.9 		"/>
		<polygon class="st12" points="37.5,37.7 28.6,41.9 28.6,53.1 33,45.4 39.6,40.6 		"/>
		<pattern  id="SVGID_7_" xlink:href="#Hatching" patternTransform="matrix(1 0 0 1 -153.8712 -0.9401)">
		</pattern>
		<polygon class="st22" points="42.4,37.7 49.1,44 43.8,55 36.4,57.3 31.6,53.1 39.6,45.4 		"/>
		<polygon class="st12" points="342,30.9 297.6,50 286,81.5 302,88.8 304,53.5 		"/>
		<g>
			<pattern  id="SVGID_8_" xlink:href="#Hatching" patternTransform="matrix(1 0 0 1 -122.7842 -0.9401)">
			</pattern>
			<polygon class="st23" points="369.2,34 416.5,54.4 423.4,85.5 356.8,107.2 308,94 322.5,57.9 			"/>
		</g>
		<polygon class="st5" points="275.4,88.8 270,90.4 277.5,100 350.4,113 		"/>
	</g>
	<g>
		<g>
			<g>
				<defs>
					<polygon id="SVGID_123_" points="-34.1,-369.6 -32.3,-272.3 77.5,-325 					"/>
				</defs>
				<clipPath id="SVGID_9_">
					<use xlink:href="#SVGID_123_"  style="overflow:visible;"/>
				</clipPath>
				<g style="clip-path:url(#SVGID_9_);">
					<g>
						<defs>
							
								<rect id="SVGID_131_" x="-54.7" y="-270.3" transform="matrix(-0.8401 0.5425 -0.5425 -0.8401 -115.2183 -395.842)" width="110.8" height="110.8"/>
						</defs>
						<clipPath id="SVGID_11_">
							<use xlink:href="#SVGID_131_"  style="overflow:visible;"/>
						</clipPath>
						<g style="clip-path:url(#SVGID_11_);">
						</g>
						<use xlink:href="#SVGID_131_"  style="overflow:visible;fill:none;stroke:#FFFFFF;stroke-miterlimit:10;"/>
					</g>
				</g>
			</g>
		</g>
	</g>
	<g>
		<g>
			<g>
				<defs>
					<polygon id="SVGID_134_" points="-364.3,-371.2 -294.6,-275.1 -221.5,-404.6 					"/>
				</defs>
				<clipPath id="SVGID_13_">
					<use xlink:href="#SVGID_134_"  style="overflow:visible;"/>
				</clipPath>
				<g class="st26">
					<g>
						<defs>
							
								<rect id="SVGID_142_" x="-289" y="-308.4" transform="matrix(-0.3783 0.9257 -0.9257 -0.3783 -527.8645 -126.8763)" width="135.3" height="135.3"/>
						</defs>
						<clipPath id="SVGID_15_">
							<use xlink:href="#SVGID_142_"  style="overflow:visible;"/>
						</clipPath>
						<use xlink:href="#SVGID_142_"  style="overflow:visible;fill:none;stroke:#FFFFFF;stroke-miterlimit:10;"/>
					</g>
				</g>
			</g>
		</g>
	</g>
</g>
</svg>
