<?xml version="1.0" encoding="utf-8"?>
<!-- Generator: Adobe Illustrator 19.0.1, SVG Export Plug-In . SVG Version: 6.00 Build 0)  -->
<svg version="1.1" id="Слой_1" xmlns="http://www.w3.org/2000/svg" xmlns:xlink="http://www.w3.org/1999/xlink" x="0px" y="0px"
	 viewBox="0 0 615 419.5" style="enable-background:new 0 0 615 419.5;" xml:space="preserve">
<style type="text/css">
	.st0{fill:none;stroke:#FFFFFF;stroke-width:4;stroke-miterlimit:10;}
	.st1{fill:#FFFFFF;stroke:#201600;stroke-miterlimit:10;}
	.st2{fill:none;stroke:#201600;stroke-width:3;stroke-miterlimit:10;}
	.st3{fill:#FFFFFF;stroke:#201600;stroke-width:3;stroke-miterlimit:10;}
	.st4{fill:none;stroke:#201600;stroke-miterlimit:10;}
	.st5{fill:#FFFFFF;}
</style>
<polygon class="st0" points="135.7,409.8 493.1,409.8 570.7,349.8 605.7,253.7 531.4,84.9 397.5,15.3 119.4,83 12.2,259.7 
	50.8,346.8 "/>
<g>
	<path class="st5" d="M528.7,117.3c2.2-0.6,3.6,0.4,3.1,3.1c-0.3,1.6-0.9,3.3,0.8,5.1c1.3-2.3,0.7-4.5,0.6-6.5
		c-0.1-1.8,0.5-4.2-2.6-3.6c-2.3,0.4-6-1.8-6.1,3.1c0,0.7-0.1,1.2-0.2,1.5C525.1,118.5,526.9,117.8,528.7,117.3z"/>
	<path class="st5" d="M160.2,408.1c-0.4-0.2-0.7-0.4-1.1-0.6l-4.7,1.6c1.8,0,3.7-0.2,5.7-0.6C160.1,408.3,160.1,408.2,160.2,408.1z"
		/>
	<path class="st5" d="M142,410.4c1.9,0.6,3.8,0.9,5.7,0.9l6.8-2.3C150,409.2,145.9,408.7,142,410.4z"/>
	<path class="st5" d="M549.7,156.2c0-0.5,0-1.1,0-1.6c0.2-1.6-2.7-3.5-0.5-4.3c2.7-0.9,5.8-0.4,8.5,1.6c2.1,1.6,0.5,3.1,0.1,4.6
		c-0.6,2.5-1.6,4.8-5.3,4.2c1.9,1.7,3.7,2.7,5.9,2.6c-0.5-3.3,1.5-6.4,0.7-9.8c-0.3-1.4,0.8-2.4,2.3-2.6c1.6-0.3,1.9,0.8,2.4,2
		c2.1,5.7,3.3,11.6,4.4,17.5c0,0-0.1-0.1-0.1-0.1c3,5.6,5.6,11.3,7,17.5l-0.1,0c3.2,5.4,4.9,11.3,7,17.2c-2.5-1.1-5.2-1.4-7-3.2
		c-2.5,3.1-5.9,0.5-8.8,1.2c-0.6,0.1-1-1.1-0.3-1.7c2.4-2.2,0.3-4-0.6-6.1c-0.7,1.7,0.4,4.3-2.6,4.4c-0.7,0-0.9,1-0.4,1.3
		c1.7,0.9,1.5,4.2,3.6,3.9c5.6-0.7,6.7,3.3,8.2,6.9c-0.3,0.3-0.5,0.7-0.6,0.7c-7.9,0.1-5.5-0.9-5.5,7.6c0,2.6,1,4.8-3,4.8
		c-1.3,0-2.9,1.4-2.4,3.9c2.5-1.4,4.8-2.6,7-4c2.1-1.3,0.6-3.1,0.4-4.7c-0.2-1.9-2-4.7,0.3-5.3c1.9-0.5,5-1.3,7.2,1.3
		c1,1.2,3.6,5.6,4.6-0.3c-3.5-0.2-8.8-6.5-8.1-9.5c0.2-0.9,0.9-1.1,1.6-1.2c4-0.5,8.7,3.3,9.1,7.3c4,3.3,3.9,8.7,6.4,12.8
		c2.4,4,3.1,9,5.7,13.1c1.3,2.1,0.8,3.3-1.5,4.2c-1.7,0.7-3.2,1.8-4.9,2.8c1.6,0.5,3,0.2,4.4-0.2c1.5-0.4,3.2-3,4.4-0.6
		c1.2,2.4,3.6,4.7,2.6,7.9c-0.2,0.6-0.5,1.2-0.8,1.7c1.4-0.7,2.7-1.4,4.1-2.1c-3.5-9-6.9-18-10.6-26.9
		c-4.4-10.5-10.1-20.5-13.6-31.3c-5.2-16.2-11.9-31.7-18.2-47.4c-1.6-3.8-4.1-7.2-6.2-10.8c-0.5-0.1-1.1-0.1-1.6-0.2
		c3.6,4.3,1.5,5-1.7,4.9c4.3,0.9,6.8,3.6,7.8,7.9c0.2,0.8,1.6,1.6,0.3,2.5c-1,0.7-2.2,0.5-2.8-0.2c-2.3-2.7-5.1-2.9-8.3-2.4
		c-1.7,0.4-3.4,0.8-5.1,1.2c-0.1,0.7-0.3,1.9-0.2,1.9C547.4,151.5,547.4,155,549.7,156.2z"/>
	<path class="st5" d="M596.6,255.7c-0.2,0-0.4,0-0.6,0c-3-0.2-6.1,0.1-9.1-0.1c-1.3-0.1-3.5,0.9-3.8-0.7c-0.3-1.8,0.5-4.2,2.2-5.3
		c1.1-0.7,2.1-2,3.7-1.8c0.6-3-0.6-6.3,2.6-8.9c-2.5-1.1-4.5-0.6-6.5-0.8c-2.4-0.2-3.9-0.9-2.8-3.9c0.8-2,1.8-4.9,0-5.9
		c-1.9-1.1-1.8,1.6-1.9,3c0,0.8,0.4,1.7,0.5,2.5c0.2,2.4-0.6,3.1-6.3,5.5c0.6,1.5,1.8,1.7,3,1.1c1.8-0.9,3.8-0.8,5.5-0.5
		c1.5,0.3,4.3,0,4.2,2.3c-0.2,2.2,0,5.5-3.9,5.5c-1.5,0-2.7,0.7-3.7,1.7c0.9,0.1,1.8,0.1,2.9,0.2c-1.7,6.3-6.6,6-11.7,5.9
		c-21.5-0.1-43,0-64.4,0.1c-5.3,0-10.3-0.8-14.7-4c-0.5-0.4-1.3-0.4-2.6-0.7c0.6,1.8,2.5,2.5,2,4.4c-2.1,0-4.2,1.2-6.2-1
		c-1.1-1.2-2.6,0-3.6,0.3c-4.1,1.3-8.3,0.9-12.5,0.9c-3.8-0.1-5.6-2.5-4.3-6.1c1.5-4.2,3.2-8.5,6-12c4-5,5.8-10.9,7.8-16.8
		c2.8-8,1.7-17,5.8-24.7c0.6-1.1,0.3-3.1,1.9-3c1.8,0.1,1.1,2.1,1.1,3.2c-0.2,3.1,0.7,4.6,4.1,4.3c2.8-0.2,5.3,0.8,7.6,2.4
		c1.3-10.9,2.9-10.1,12.7-3.6c0.2-2.8-2.8-3.1-3.7-5.4c3-0.8,5.1-3.9,8.8-2.9c0.4-1.9-0.8-2.3-2.3-2c-1.6,0.3-3,0.6-4.7,0.2
		c-1-0.3-1.7-0.3-1.9,1.6c-0.2,1.9-2.9,3.1-4.9,2.5c-4.1-1.2-4.6,1.2-4.8,4.2c-0.1,0.7-0.1,1.4-0.2,2.4c-2.5-0.3-4.4-2.4-7.1-1.7
		c-1.1,0.3-1.3-0.9-1.4-1.7c-0.3-1.4-0.7-2.8-0.9-4.3c-0.3-1.5-1.9-3.8-0.9-4.2c1.9-0.8,4.2-1.9,6.5-1c3.3,1.3,6.2,0.5,9.1-1
		c0.8-0.4,1.7-0.5,1-1.7c-0.4-0.8-1.6-1.8-1.9-1.4c-4.1,5.4-8.7,1.2-13.6,0.8c1-2,2-4,2.9-6.1c1.2-2.7,2.8-4.5,5.9-2.3
		c0.7,0.5,1.3,0.6,1.6-0.4c0.2-0.8,0-1.3-1-1.4c-3.7-0.2-2-1.8-1-3.6c1.3-2.3,1.1-5.4,3.8-6.9c0.6-3.6,2.5-6.6,4.4-9.6l-0.1,0.1
		c0.6-4.1,3.3-7.3,4.5-11.1c0.4-1.3,1.2-1.3,2.4-0.7c1.6,0.7,3.3,1.2,4.9,1.8c2,0.8,3.2,1.9,1.7,4.3c-1.2,1.8-1.2,3.1,1.7,3
		c1.1,0,2.4,0.9,3.5,1.6c3.5,2.4,7.6,1.4,8.2-2.9c0.8-5.6,3.9-5.3,7.8-4.4c0.3,0.1,0.8-0.2,1.2-0.4c-3-3.5,1.3-4.4,2.5-6.7
		c-2.8-0.1-4.6,1.1-5.8,3.2c-1.5,2.8-4.1,2.8-5.5,0.9c-2.9-4.1-6.1-3.6-9.8-1.9c-0.6,2-2.1,0.8-3.2,0.9c-2.5,0.9-4.8-0.8-7.2-0.7
		c-1.1,0-1.4-0.8-1.5-1.7c0-2.8,1.2-5.3,2.2-7.8c0.3-0.7,1.1-0.9,1.9-0.8c3,0.5,6,1,8.9,1.5c2.9-2.2,5.9-4.5,8.8,0.1
		c0.6,0.1,1.2,0.1,1.7,0.2c2.7,0.2,5.3-0.1,7.5-2c0.3-0.8,0.6-1.6,1-2.3c-4.6,1.8-9.2,3.7-13.4-0.9c-0.1-0.1-0.3-0.1-0.4,0
		c-2.9,1.8-3.5-1.1-5-2.3c-0.1,3.3-0.1,6.4-5,4.4c-1.3-0.5-3.1-0.1-4.6-0.1c0-0.7-0.2-1-0.1-1.3c1.2-2.3,2-5.1,3.7-6.8
		c2.8-2.6,3.1,3,5.7,2.3c-0.1-1.1,0.1-2,0.5-2.8c-0.5,0.6-1.6,0-2.6-0.8c-1.2-0.9-1.7-1.8-0.8-3.3c1.3-2.1,2.7-3.9,5.9-2.3
		c-3.2-3.3-0.3-5.7,0.4-8.2c0.7-2.5,2.7,0.5,4.2-0.7c-0.3-0.4-0.6-1-1-1.2c-1.2-0.6-3.2-0.9-2.1-2.8c1.2-2.2-0.5-6.1,3.7-6.6
		c-0.9-2.8,0-5.1,1.9-7.6c2,2.7,3,5.2,0.3,7.9c1.4-0.1,2.8-0.3,4.7-0.4c-1.4-3.3-2.5-6.4-4.1-9.3c-1.5-2.8-2.4-1.8-3.2,0.2
		c-1.3,3.3-3.1,6.4-4,10c-1.7,6.5-2.6,13.3-7.4,18.8c-5.2,6.1-8.6,13.4-10.8,21.2c-1,3.5-0.5,7.6-3,10.3c-3.3,3.5-3.9,7.9-5.9,11.9
		c-0.7,1.4-1.5,2.8-2.2,4.2c-3.8,7.2-7.5,14.4-11.4,21.5c-1.6,2.9-0.8,6.6-3.3,9.1c-3.1,3.2-4.4,7.3-4.4,11.5
		c0.3,17.3-9.2,30.9-16.5,45.5c-5-6.5-13.2-9.3-18.4-15.7c-0.8-1-2.6-1.3-3.9-1.9c-11.6-5.6-24.2-7.7-36.4-11.4
		c-1.8-0.6-3.4-1.2-4.7-2.4c0.5-1.9,2.8-0.4,3.1-2.4c-4.4-0.7-4.2-3.3-2.5-6.4c0.6-1,0.9-1.7-0.5-2.3c-3.2-1.3-4.3-4-3.7-7.5
		c-3.5,2.3-7.5,1.6-10.7,1.7c-2.8,0.1-2.5,1.3-2.2,2.2c1.6,4.2-5,3.4-4.1,7c-0.3,0-0.6,0-0.8-0.1c-2.6-2-6-0.6-8.8-1.9
		c-11-5.1-22.9-6.9-34.5-9.7c-11.8-2.9-23.7-6.1-36.2-6.1c-1.9,0-5.4,0.4-6.5-2.1c-1-2.4,0.4-6.5-4.7-4.7c-0.1,0-0.7-0.6-0.6-0.9
		c0.3-3.4-1.2-3.1-3.2-1.6c-0.9,0.7-1.4,0.7-2.1-0.1c-1.7-1.9-2.8-0.6-3.5,1c-0.5,1.2-0.8,2.5-1.1,3.7c-0.9,3-3,1.4-4.6,1.2
		c-1.8-0.2-1.9-0.9-1.2-2.9c1.7-5.4,1.1-11,0-16.5c-1.9,5.1-1.7,10.4-0.7,15.5c0.6,3.1-0.3,3.4-3,3.2c-8.6-0.8-17.2-0.8-25.7,0.2
		c-3.9,0.5-4.5-1-4.5-4.1c0-8.7-0.1-17.4,0.1-26.2c0.1-3.1-0.9-6.7,3.6-8.6c-6.4-0.9-2.1-6.2-5.4-9.7c1.1,6.6-1,11.8-0.2,17.6
		c1,8.2,0,16.5,0.3,24.8c0.2,4.5-0.1,7.4-5.9,7.9c-3.5,0.3-3.9-0.2-3.9-3.2c0.1-7.6,0.1-15.1,0.1-22.7c0-5.4,0-5.4,5.3-3.8
		c-1.5-2-2.6-3.8,0-5.5c0.4-0.3,1.1-2.5,0.1-2.6c-1.6-0.1-2.8-2.6-4.2-1c-1.6,1.8-3.7,3.4-3.2,6.7c0.4,2.5,1.7,7.3-4.2,4.4
		c-0.7-0.3-2,0.9-2.8,0.7c-1.7-0.5-3.3,4.7-5,0c-0.2-0.6-1.3,0.8-1.3,1.6c-0.1,2.5,2.6,3.7,5.2,2.4c5.1-2.5,8.4-0.5,8.4,4.9
		c0,4.8,0,9.6,0,14.4c0,6.5,0,6.5-6.5,7.1c-9.6,0.8-16.1,8-15.9,17.6c0.1,4.2,0.4,8.4,0.7,12.6c0.3,5.2-1.4,7.6-6.4,9.4
		c-5.2,1.9-10.7,2.7-15.4,5.9c-6.4,4.4-7.7,7.7-5.6,15.1c0.9,3.2-1.3,6.3-4.7,6.3c-20.1,0-40.1,0-60.2,0c-1.2,0-2.6,0.4-3-1.6
		c-0.4-1.9,0.8-1.7,1.9-2.4c2.4-1.4,3.4-4,2.6-6.7c-0.8-2.7-3.2-1.1-4.9-1c-2.3,0.1-3.6-0.5-3.9-2.9c-1.5,2.8-1.4,5.6-0.6,9.5
		c1.7-2.9,3.2-4.8,6.4-3.9c-1.6,2-3.5,5.9-4.8,5.2c-2.7-1.6-4.9,0-7.3-0.6c-1.5-4,1.8-6.7,2.8-10.1c-2.5,1-2.9-1-3.9-2.5
		c-0.6-1-0.8-2.8-2.3-2.7c-1.6,0.1-2.1,1.8-2.9,2.9c-1,1.2-0.4,2.8-0.7,4.1c0.8,1,1.9,1.5,1.7-0.4c-0.3-2.1,1.1-2.5,2.2-3.5
		c2.6,9.8,2.5,10.3-3.2,14.1c-0.3-1.1-0.5-2.1-0.7-3.1c-1.8,0.1-2.2,3.8-4.3,1.7c-1.8-1.8-4.2-3.6-4.4-6.4c-0.1-2.1,0.8-3.6,3.4-1.7
		c0.9,0.7,3.4,3.1,3.8-0.8c-1.8-0.3-3.5-1.1-4.3-2.6c-0.8-1.6-1.9-2.1-3.4-1.6c-1.5,0.4-2,1.9-1.8,3.1c0.4,3.8-0.5,6.3-5.1,6.6
		c2.8,1.2,5.5,2.4,8.7,3.8c-1.6,0.5-2.6,0.8-3.7,1.1c-0.3,2.6,1.5,2.2,3,2.3c1.6,0.1,3.2-1.5,5.4,0.1h-74c1.5,2.1,2.4,2.1,3.2,2.1
		c9.6,0.1,19.2,0.2,28.8,0.2c11.2,0,22.4,0,33.6,0c2.1,0,4.1,0,2.2,3c-0.7,1.1-0.8,3,0.7,3.4c4,1,4,3,2.1,6c-0.5,0.7-0.5,2-0.3,3
		c0.6,2.6,0.9,5.1-0.3,7.6c-0.6,1.1-0.2,2.5,0.6,3.4c1.8-3.8,2.9-7.8,1.6-12c-0.1-0.4-0.1-1,0.2-1.3c3.2-4.2,1.4-7.1-2.9-9
		c1.1-1.6,2.3-2.9,3.7-2.2c1.4,0.7,2.9,2,2.9,4c0,1.3,0.2,2.7-0.2,3.9c-1.1,4,0.9,7.3,1.7,11.1c1.6-1.1,1.4-2.5,1.1-3.4
		c-1.6-3.8-0.8-7.7-0.8-11.6c0-1.3-0.2-2.6-1.2-3.6c-0.5-0.5-0.8-1.4-0.1-1.9c0.5-0.4,1.4-0.6,2-0.4c3.2,0.7,7.2,0.7,5.5,5.9
		c-0.2,0.6,0.5,1.3,0.6,2c0.5,4.1,1.5,8.1-0.8,12.3c-2.3,4.3-0.6,9.1-1,13.7c2.1-1.8,1.7-4,1.8-6.1c0.1-2-0.5-4.4,0.4-6
		c3.1-5.5,2.4-10.8,0.7-16.4c-1.3-4.5-0.3-5.6,4.6-5.6c20.6,0,41.3,0,61.9,0c2.2,0,4.3,0.4,6.5,0.4c2.1,0,3.2,0.6,3.4,2.9
		c0.2,3.1,2.2,4.5,5,5.2c2.2,0.6,4.5,1.1,6.7,1.6c0.8,0.2,1.9,0.1,2.1,1.2c0.1,0.9-0.7,1.5-1.4,2c-1.9,1.2-4.1,1.4-6.3,1.6
		c-2.8,0.3-5.3,1.2-7.9,2.2c-2.7,1.1-4,2.7-3.6,5.6c0.4,2.9,2.7,3.8,5,4c4.2,0.3,8.4,0.3,12.6,0.1c2.4-0.1,4.6,0.6,6.6,1.9
		c1.1,0.7,2.5,1.4,2.3,2.9c-0.2,1.6-1.8,1.7-3,2.1c-4.5,1.4-9.2,0.8-13.9,1c-2.8,0.1-5.5,0.1-8.2,0.9c-4.2,1.3-6.9,5.5-6.1,9.8
		c0.9,4.6,4.5,4.8,8.1,4.7c1.6,0,3.2-0.3,4.8-0.5c1.6-0.1,2.9,0,2.8,2.2c-0.1,1.8-0.6,2.7-2.5,2.7c-2.5,0-5-0.1-7.4,0.2
		c-4.7,0.5-7.6,4.1-7.4,9.1c0.1,3.8,3.2,6.8,7.7,6.5c5.1-0.3,9.3,2.1,13.8,3.3c1.1,0.3,2.4,0.7,2.3,2.2c-0.1,1.6-1.5,2.1-2.8,2.3
		c-3,0.4-6,0.7-9.1,1c-5.8,0.5-10.1,3.5-11.6,8.4c-1.3,4.3,0.1,7.2,4.4,8.3c1.5,0.4,3.2,0.7,4.7,0.6c3.3-0.2,5.2,1.4,5.1,4.5
		c-0.1,3.2-3.1,2.2-5,2.6c-0.7,0.2-1.4,0.1-2.2,0.1c-6.1,0-10.3,2.1-12.9,8.2c-3,7.2-1.7,10,6.3,10.1c3.2,0,6,0.9,8.5,2.9
		c1.2,0.9,1.8,2.4,1.4,3.9c-0.4,1.4-1.8,1.1-3,1.3c-1.6,0.2-3.1,0.5-4.7,0.9c-3.9,0.9-6.8,3.4-9,6.4c-2.7,3.6-1.2,6.4,2.5,8.4
		l1.6-0.5c0-0.1,0.1-0.1,0.1-0.2c-2.2-0.6-3.7-2.5-3.8-4.8c-0.1-2.7,2.4-5,5-5h2.6c1.4-1.7,3.6-2.5,6-0.8c0.2,0.1,0.3,0.2,0.5,0.3
		c1.8-1.8,3.6-3.7,5.4-5.5l-0.4,0.1c0.3-1,0.2-2.1-0.3-3.6c-0.7-2.1-2.2-3.4-4.1-4.2c-3.1-1.3-6.3-2.2-9.7-2c-2.5,0.2-3.9-1-3.5-3.7
		c0.7-4.8,4.8-8.9,9.6-9.5c2.6-0.3,5.2-0.4,7.8-0.8c3.7-0.5,4.9-2.6,4-6.2c-1.1-4.2-3.8-5.4-7.8-5.2c-2.6,0.1-5.6-0.1-6.6-3.1
		c-1-3.2,1-5.6,3.5-7.4c3.2-2.4,7.1-2.3,10.9-2.5c2-0.1,4.1-0.2,6-1c2-0.9,3.4-2.1,3.4-4.5c0-2.4-1.5-3.4-3.4-3.9
		c-4.8-1.5-9.3-3.9-14.7-3.5c-2.9,0.2-5.5-1.1-5.7-4.6c-0.2-3.5,1.5-5.9,5.2-6.3c2.3-0.2,4.6-0.5,6.9-0.3c4.1,0.3,4.8-1.9,5-5.3
		c0.2-4-2.1-4.1-4.9-3.9c-1.9,0.1-3.8,0.1-5.7,0.1c-2.1,0-4.2-0.2-4.9-2.7c-0.6-2.3,0.2-4.3,2-5.8c2-1.7,4.5-1.9,7-1.9
		c6.1-0.1,12.2,0.4,18.1-1.6c1.9-0.6,4-1.1,4.2-3.8c0.2-2.5-1.3-3.9-3.2-5.3c-3.2-2.3-6.8-2.3-10.4-2.2c-3.6,0.1-7.3,0.4-10.8-0.5
		c-1.2-0.3-2.2-0.8-2.4-2.2c-0.2-1.6,1.1-1.9,2.1-2.3c2.5-1.1,5-2.3,7.9-2.3c2.3,0,4.6-0.7,6.7-1.8c2-1.1,2.8-2.8,2.6-5.1
		c-0.3-2.4-2.2-2.5-3.9-2.6c-2.6-0.2-5.1-0.9-7.5-2c-2.6-1.2-3.6-3.3-3.1-6.4c0.5-3.3,2.5-3.2,5-3.1c8.1,0.1,16.3,0.2,24.4,0.2
		c67.6,0,135.1,0,202.7,0c52.2,0,104.3,0,156.5,0c8.5,0,16.9,0,25.4,0C592.3,257.5,594.5,256.6,596.6,255.7z M527.4,140.8
		c2,1.2,4.4,3.2,3.8,6.2c-0.5,2.4-1.6,5.4-4.6,4.8c-2.1-0.4-4.1-1.7-6.5-1.7C521,144.8,525.2,139.5,527.4,140.8z M228.4,156.3
		c0.1,0.1,0.2,0.2,0.3,0.3c-0.1,0.2-0.2,0.4-0.3,0.6c-0.1-0.1-0.3-0.2-0.3-0.3C228.1,156.7,228.3,156.5,228.4,156.3z M226.7,154.2
		c0.4,0.3,1,0.4,0.9,1.2c-0.1,0.7-0.5,0.9-1.1,0.8c-0.3,0-0.6-0.5-0.7-0.8C225.6,154.7,226.3,154.5,226.7,154.2z M380,209.3
		c0.2,0.3,0.9,0.2,0.6,1.2c0,0-0.3,0.3-0.5,0.5c-0.2-0.3-0.5-0.6-0.7-0.9C379.1,209.5,379.8,209.6,380,209.3z M368.8,212.9
		c3.4-1.3,7.2-3.8,9.6,0.8c1.4,2.7-1.1,4.6-3.3,5.8c-3.3,1.8-5.7,0.4-8-4.1c-2.2,2.9-8.7,2.4-10.4-0.7c-0.4-0.8-0.8-1.8,0.1-2.4
		c0.9-0.6,2.1-1.2,3.2-1.2c1.9,0.1-0.1,2.4,1.2,3c6.2-3.8-1.7-4.6-1.7-7.2C366.2,207.3,369.6,209.4,368.8,212.9z M371.3,225.2
		c-1.1,1.4-2.5,1.8-4.5,1.6c-3.5,0.4-3.6-3.4-5.4-5.3c-0.7-0.8,0.6-1.6,1.7-1.8c3.7-0.9,5.7,2,8.3,3.5
		C371.9,223.7,371.8,224.5,371.3,225.2z M284.2,184.6c0.6,1.6,1.3,3.3-0.1,4.7c-0.3,0.3-1.8,0-1.9-0.2
		C281.8,187.2,283.1,186,284.2,184.6z M279.2,185.2c1.2,1.4,0.6,2.6-0.5,3.6c-0.2,0.1-1,0-1.1-0.3C276.8,186.8,278,186,279.2,185.2z
		 M356.4,255.6c2.5-1.8,3.5-4.5,6.4-4.4c2.4,0.1,2.5,2.4,3.6,4.4H356.4z M373.2,255.8c-1.2,0-2.6,0-2.6-1.5c0-1.5,1.5-1.1,2.3-1.1
		c4.2-0.1,8.6-1,12.3,2.7C381.2,255.8,377.2,255.8,373.2,255.8z M458.9,255.7c-19.2,0-38.4,0-57.5,0c-5.7,0-11.1-1.8-16.4-3.8
		c-4.5-1.7-9.3-2.5-13.9-0.3c-1.8,0.9-2.9,0.7-4.1-0.8c-2.5-3-5.8-2.8-8.6-1.1c-1.8,1.1-3.5,1.1-5.3,1c-6.5-0.4-12.9-0.7-19.5,0.8
		c-5.4,1.2-10.9-0.9-16.4-1.3c-6.4-0.4-7.4-4.2-8.1-9.5c-0.9-7.6-3.2-8.8-10.5-6.6c-1.4,0.4-2.6,1.1-4.1,0.1
		c-7.6-5.3-16.2-6.9-25.2-6.5c-3.4,0.2-4.6-0.9-3.5-4.2c-0.1-0.9-0.2-1.7-0.4-2.6c-1.7-1.1-2-2.4-1.1-4.4c0.7-1.7,0.2-3.6-1.9-4.1
		c-2.5-0.6-2.5,1.2-2.2,2.9c0.2,1.3-0.2,1.9-1.6,1.8c-2.1-0.1-4.2-0.3-5,2.3c-0.3,0.9-0.3,1.9,0.5,2.4c2.1,1.3,4.3,1.4,6.5,0
		c-1.1-1.7-3.3-0.2-4.5-1.6c3-1.6,3.8-1.4,6.7,1.6c5.6,6.9-2.7,5.7-5.8,8.8c2.8,0,4.6,0.3,6.3,0c10.9-2.2,21.1-0.6,30.3,5.8
		c0.4,0.3,1.1,0.3,1.7,0.4c1-0.4,0.7,0.2,0.5,0.7c-0.5,4.1-0.1,8.1,0,12.2c0.1,3.4,1.6,4.9,5.2,4.5c2.3-0.3,4.6-0.1,6.9-0.1
		c1.8,0,4.1,1.5,3.4-2.6c-0.4-2.2,2.1-0.8,3.1-0.3c6.1,2.6,12.6,3.6,19.1,2.8c4.9-0.6,9.8-1,14.7-0.9c2.4,0.1,6.8-1,6.8,1.5
		c0,2.6-4.3,1.2-6.6,1.2c-20.4,0.1-40.9,0-61.3,0c-1.7,0-3.3,0-5.1-0.8c3-0.8,6-1.5,9-2.3c1.3-0.3,3.1-0.1,2.9-2.4
		c-7.8,1.6-15.8,2.3-23.4,5.1c-2.8,1-5.4,0-7.7-1.4c-3.5-2.1-7.2-3.1-11.2-2.8c0.1,1.4,1.1,2.1,2.4,1.9c2.5-0.3,4.3,0.8,6,2.2
		c-8.1,1.5-9.1,1.1-9.8-4.8c-0.3-0.2-0.8-0.4-1-0.7c-7.9-8.9-18.2-8.6-26.1,0.8c-0.2,0.8-0.7,2.1-0.4,2.3c1.2,0.9,1.6-0.3,2.2-1.1
		c6.3-7.6,16.5-8.1,22.1-1.2c1.1,1.4,1.8,2.8,1.2,4.3c-0.7,1.9-2.5,0.9-3.8,0.9c-9.3,0.1-18.6,0-27.9,0c-0.1-2.3,3.7-1.5,2.2-4.1
		c-12.6,7.2-26.4,2.9-39.6,4.1c-1,0.1-2.3,0.2-2.4-1.2c-0.2-3.8-1.4-7.8,1.5-11.2c3.1-3.5,7.1-5.5,11.5-6.8c0.8-0.2,1.7-0.4,2.5-0.7
		c11.8-3.4,12.8-4.8,12.4-17c-0.1-2.5-0.3-4.9-0.5-7.4c-0.6-9.9,5.4-16.5,15.3-16.9c3.5-0.1,6.8-1,10.1-2.4
		c5.8-2.3,12.2-2.3,18.4-2.7c15.4-1,30.6,2,45.8,3.8c3.7,0.4,7.4,1,11.2,0.9c6.6-0.1,12.9,1.4,19.1,3.4c2.5,0.8,5.2,1,7.6,1.2
		c8.5,0.6,15.8,5.3,24.2,6.1c1.2,0.1,2.9-0.2,3,1.7c0,2-2.1,2.2-3.2,3.2c-1.5,1.2-1.7-0.7-2.4-1.5c-0.2-0.2-0.4-0.3-0.8-0.7
		c-0.6,1.7-0.4,3.6,0.7,4.5c3.2,2.7,0.9,3.5-1.4,4.6c1.7,1.4,3.5,0.4,5.1,0.8c2.1,0.5,3.7,1.4,2.6,3.7c-1.5,3.3,0.7,4.5,2.8,5.8
		c2.9,1.8,5.9,2.5,9.1,1.1c0.8-0.3,1.4-1,2.4-0.3c2.3,1.5,2.2,0.2,1.6-1.5c-0.7-2.2-0.3-3.6,2.4-3.9c3-0.3,2.3,1.8,2.4,3.4
		c3.1-3.9,2.2-8.8,3.2-13.2c0.6-2.8,1.1-5.6,2.3-8.2c1.1-2.3,3-3.2,5.4-2.6c2.4,0.6,4.1,2.5,4.8,4.7c0.7,2.2-2.6,1.2-3.2,3
		c3.6,0.7,8.1,1.3,3.1,6.3c-0.3,0.3,1,3.2,0.8,5.3c-0.1,1.2,1.7,3.2,0.2,4.1c-2,1.3-3.8,3.2-6.5,3.1c-3,0-6.1,0.1-9.1,0.1
		c3.7,3.4,8.2,2.3,12.2,1.5c4.2-0.9,6.5-4.5,6.4-9.3c8.2,2.2,16.2,4.1,24.1,6.4c6.5,1.9,12.8,4.5,19.9,7.8c-6.4,1-8.4,6-11.8,9.4
		c0,1.9,2.2,4.6-1.9,4.8c-0.8,2,0.8,1.9,1.9,2c3.7,0.4,7.5-0.3,11.3,0.6c1.7,0.4,1.8-0.9,1-2.2c-2-3.1-5.2-3.7-9.9-3.6
		c4.9-2.9,8.4-5.6,10.8-9.7c5.7,6.7,14.4,10.3,17.7,19C461.2,256.1,460,255.7,458.9,255.7z M302.7,235.5c1.7,0,2.7,0.5,3.2,2.2
		c1.2,3.9,1.3,8,2,12c0.3,1.7-1,2-2,2.3c-5.4,1.8-7.7,0.2-8.1-5.4c-0.1-1.2,0-2.3,0-3.5C297.6,237.1,298.7,235.5,302.7,235.5z"/>
	<path class="st5" d="M124.1,371.3c0-3-0.2-5.1-3.3-5.9c4.4-1.9,8.2-4.2,12.8-1.8c1.8,1,1.7-0.8,1.9-1.9c1.1-4.8,3-9.2,5.1-13.7
		c1.2,1.4-3.4,6.5,3,4.1c1.1-0.4,1.3,1.8,2.2,2.6c-3.1,0.4,1.2,4.1-2.2,4.8c-1.1,0.2,0.6,1.9,1.2,2.7c1.3,1.8,0.9,2.6-1.2,3.3
		c-1.9,0.6-2.7,2.2-1.2,4.1c0.9,1.2,0.7,1.6-0.7,2.6c-2.1,1.4,1.5,1.4,1,2.8c-4.3,1-4.3,1-6.7-2.2c-2.4,6.8-1.2,9.4,5,10.5
		c-6.2-1.3-5.5,2-4.6,5.9c0.8,3.4,1.7,6.7,3,10c0.8,1.9,1.5,3.9,0.9,6.3c-4-6-5.2-12.7-6.4-19.4c-0.2-1.2,0.1-3-1.5-3.1
		c-1.6-0.1-1.9,1.5-1.7,2.9c0.3,2.1-1.4,2.4-2.4,3.3c1.8-3.5,1.8-3.5-8.6-5.1c3.7-1.7,5.9-6.2,10.7-2.5c1.2,0.9,2.8-1,2.7-2.9
		c-0.1-3.6,0.1-7.3,1.1-10.8c0.7-2.3-1-2.4-2.3-2.8c-1.8-0.5-3.8-1.2-5.4,0.1c-0.6,0.5,0,1.6,1.1,1.8c0.9,0.1,1.9-0.8,3,0.4
		C128.4,368.6,126.6,369.8,124.1,371.3z M138.6,357.8c-1.7,3.4-1.6,6.8-2.4,9.9c-0.5,1.9,1.4,3.5,2.7,3.7c2,0.3,2.7-1.7,2.7-3.6
		c0-0.8-1.2-1.4-0.3-2.3C145.1,361.4,140.8,360.3,138.6,357.8z M126.6,382.5c-0.1-0.1-0.2-0.2-0.3-0.3c-0.1,0.2-0.2,0.4-0.3,0.6
		c0,0.1,0.2,0.2,0.3,0.3C126.4,382.8,126.5,382.6,126.6,382.5z"/>
	<path class="st5" d="M89.3,317.6c2.4-2.8,1.9-4.5-1.8-5.2c-1-0.2-1.9-0.7-2.9-0.9c-4.3-0.8-6,0.4-6.6,4.6c-0.2,1.6-0.2,3.2-1.9,4.1
		c-0.2,0.1-0.7,0-0.8-0.1c-1-1.6,0.1-3,0.4-4.5c0.4-1.9,2.2-3.2,2.1-5.4c0-1.4,1.7-1.2,2.9-1c3.3,0.5,6.6,1,9.8,1.6
		c3,0.5,2.8,2.7,1.9,4.6c-1.2,2.5-0.4,3.3,1.8,4.4c5.2,2.5,6.4,8.6,2.8,12.7c0,0,0.1,0.1,0.1,0.1c0.3-2,0.5-4,0.1-6
		c-0.5-2.9-2.2-4.5-5-5.4c-2.5-0.7-3.9-0.4-4.9,2.3c-0.5,1.5-2.2,1.8-3.8,1.2c-1.1-0.5-1.8-0.4-2.2,1c-1.4,4.5,0.8,8.5,5.5,9.5
		c2.9,0.6,5.7,0.2,8.5-0.8l0,0c0,2.1-1.6,2.5-3.1,2.9c-7.2,1.8-12.9-2.9-12.3-10.2c0.2-2.3,0.2-2.3-4.8-4.1c4.4-0.3,6.9-1.6,8.2-5
		c0.6-1.8,2.7-1,4.1-0.1c0.4,0.5,0.9,1,1.3,1.5C89,318.6,89.1,318.1,89.3,317.6z"/>
	<path class="st5" d="M543.7,104.6c4.3,8.5,6.7,17.8,10.7,26.8c-1.2-0.7-2-2.1-3-0.4c-0.4-1.9,1.9-5.8-3.2-4c-0.2,0.1-0.7-0.8-1-1.2
		c1.3-0.3,4.3,0.6,3.2-1.8c-2.6-5.6-4-11.8-8.3-16.5c-1.9-2-6.9-2.1-6.6-0.5c0.4,2.2-0.8,5.2,2.5,6.5c1.6,0.6,3.1,1.4,4.6,2.3
		c1.7,1.1,1.6,2-0.6,2.3c-0.3-0.1-0.6-0.2-0.9-0.3c-1.9-1.3-4.9-2.9-5.1-4c-0.5-2.6-2.6-4.9-1.7-7.7c0.7-2.2,2.5-1.9,4.2-1.4
		C540.2,104.7,541.9,104.7,543.7,104.6z"/>
	<path class="st5" d="M227.2,127.6c1.8-2.3-0.6-2.9-1.7-3.9c-0.5-0.5-1.1-0.9-0.8-1.8c0.3-0.7,1-1,1.4-0.7c3,2.1,3.2-0.8,4.2-2.2
		c0.6-0.8,0.9-1.8,1.3-2.7c0.5-1,0.9-2.7,2.2-2.4c2.2,0.4,0.4,3.1,2,4.4c0.9,0.8-0.7,2.2-1.3,2.2c-6.7,0.9-2.5,4.4-1.8,7.1
		c0.1,0.4,0.1,0.8,0.2,1.2C230.6,129.7,229.5,125.5,227.2,127.6L227.2,127.6z"/>
	<path class="st5" d="M265.5,134.5c2.7-2.8,5.5-4.1,7-6.7c0.4-0.6,1.1-1,1.8-0.4c0.6,0.5,0.3,1.2,0,1.6c-3.1,3.9-1.3,5,3.2,5.1
		c-3,0.5,0.3,5.6-4.4,4.7c-1.6-0.3-2.6,0.7-2.3-2C271,134.6,268.2,134.7,265.5,134.5z"/>
	<path class="st5" d="M268.5,119.3c-2.7,0-4.4-0.7-4.6-3.5c-0.1-1.1,0.1-2.3-2.2-1.8c-2.2,0.4-1.2-3.4-3.2-4.1
		c0.6-1.3,0.9-2.8,2.2-3.6c0.6-0.4,1.3-0.3,1.5,0.3c0.8,4,5.1,5.7,6.1,9.6c0.2,0.7,0.4,0.9,1.1,1c0.9,0.2,1.8,0.6,1.3,1.7
		C270.1,119.8,269,119.1,268.5,119.3z"/>
	<path class="st5" d="M247.6,143.8c0,13.4,0,26.8,0,40.2c-0.3,0-0.6,0-0.9,0c0-13.4,0-26.8,0-40.2
		C247,143.8,247.3,143.8,247.6,143.8z"/>
	<path class="st5" d="M234.1,99.1c0.2,2.5-0.6,4.2,0.1,5.8c1.9,0.7,2.5-2,4.5-1.4c-1.2,3.8-5,4.8-7.3,3.9c-2.5-1-3.7-4.6-3.9-7.7
		c-0.1-1.4,1.2-1.8,1.9-0.6C230.7,101.3,232.1,101.6,234.1,99.1z"/>
	<path class="st5" d="M245.2,111.7c2.2,4.5,6.3,3.6,9,5.5c1.3,0.9,2.5,1.1,1.9,2.9c-0.8,2.3-2.1-0.1-3.2,0.3
		c-1.4,0.4-2.1-1.2-3.3-1.8c-1.2-0.6-2.3-1.5-3.3,0c-0.5,0.8-0.7,2.2-2,1.5c-1-0.5-0.8-1.7-0.5-2.7
		C244.2,115.9,244.5,114.4,245.2,111.7z"/>
	<path class="st5" d="M213.6,126.4c-4.1-1.5-4.8-4.6-6.5-6.7c-0.8-1,0.9-2.1,2.2-1.5c2.6,1.1,4.2,0.6,5-2.2c0.3-1,0.9-2.1,2.2-1.5
		c1.7,0.8,0.5,1.9-0.1,2.8c-0.7,1.1-1.2,2.9-2.1,3.1C210.1,121.4,212.2,123.5,213.6,126.4z"/>
	<path class="st5" d="M254.9,145.6c1.5-1.1,2.3-1.8,3.1-2.3c0.9-0.6,1.5-2.2,2.7-1.8c1.9,0.7,0.3,2.2,0.3,3.4c0,1.4,0.4,2,1.8,2.3
		c1.3,0.3,1.6,1.5,1.5,2.8c-0.1,1.4-0.9,2.5-2.3,2.8c-1.1,0.2-2.5,1-1.9-1.7C260.7,148.3,259.3,145.7,254.9,145.6z"/>
	<path class="st5" d="M214.5,148.7c-1.8-1-3.7-2-5.5-3c1.5-0.9,0.1-3.8,2.6-4.1c1.4-0.2,0.6-1.3,0.7-2c0.2-1.5,1.1-0.9,1.9-0.6
		c0.5,0.1,1.5-0.4,1,1c-0.9,2.3-0.6,4.7,0.6,7C216.2,147.7,215.9,148.7,214.5,148.7z"/>
	<path class="st5" d="M257.1,183.1c0-9.3,0-18,0-27.6C259,160.1,258.9,179.4,257.1,183.1z"/>
	<path class="st5" d="M277.2,164.5c5.8,0.4,1.6-3.7,3.7-4.8c0.3-0.2-0.8-1.7,0.8-1.8c0.8,0,2,0,2.2,1c0.4,2.2,1.7,4.8,0.3,6.5
		C282.8,166.8,280.3,166.3,277.2,164.5z"/>
	<path class="st5" d="M208.1,157c-1.4-0.3-2.6-2.2-4.2-3.4c-0.1-0.1,0.2-1.1,0.6-1.4c0.5-0.5,0.8-0.1,1.3,0.4
		c1.6,1.6,3.5,2.5,5.9,1.3c0.9-0.5,2.5-0.6,2.9,0.9c0.5,1.9-1.2,1.5-2.2,1.7C211.2,156.5,210.1,156.7,208.1,157z"/>
	<path class="st5" d="M266.4,155.5c0.9-1.3-1-2.2-0.1-3.9c1.5,1.8,5.6-1,5.6,3.6c0,0.9,1.1,2.1-0.4,2.6c-1.1,0.3-2.6,0.4-3.2-1.3
		C268,155.6,267.7,154.4,266.4,155.5L266.4,155.5z"/>
	<path class="st5" d="M137.5,343.1c-3.4-0.6-6.9,0.1-11.6-1.8c4.6,0,4.4-2.5,4.8-5C130.3,341.7,134.6,341.4,137.5,343.1z"/>
	<path class="st5" d="M266.3,155.4c-1.6,2.3-1.6,4,1.7,4.5c0.8,0.1,1.4,0.5,1.2,1.4c-0.3,1.1-1.1,1.2-2.1,0.9
		c-1.9-0.5-3-2.5-5.4-2.2c-1,0.1-0.6-1.4-0.1-2.1C262.8,156.3,264.4,155.4,266.3,155.4C266.4,155.5,266.3,155.4,266.3,155.4z"/>
	<path class="st5" d="M249.7,132.9c1.6,1.8,5.8,1.5,4.2,5.2c-1,2.5-3.3,0.6-3.9,0.3C246.9,137,251.1,134.8,249.7,132.9z"/>
	<path class="st5" d="M129,351.2c0.3-1.3,1.1-1.9,2-0.8c0.9,1.1,1.4,2.8-0.3,3.7c-3.6,2.1-4.6-0.8-6.1-3.8c1.5,0.8,2.5,1.4,3.5,1.9
		c0.5,0.3,1,0.5,1.3-0.1C129.5,352,129.1,351.5,129,351.2z"/>
	<path class="st5" d="M145.6,385.5c-2,2.8-3.7,5.5-6.8,1.3C140.9,386,142.8,385.1,145.6,385.5z"/>
	<path class="st5" d="M284.1,139.6c-0.4-2.1-0.6-4.1-3-5.4c2-0.8,3.3-0.4,4.1,0.9C286.1,136.6,285.8,138.2,284.1,139.6z"/>
	<path class="st5" d="M279.5,152.6c1.7,0.2,2.5,0.3,3.4,0.3c1.3,0,2.8-0.3,3.5,1.1c0.4,0.8-0.2,1.2-1,1.6c-1.4,0.6-2.7,1-3.8-0.7
		C281.3,154.3,280.7,153.8,279.5,152.6z"/>
	<path class="st5" d="M75.3,258.3c-3.3-0.7-6.3-1.8-6.8-6.1c3.2,0.4,3.6,4.7,6.9,4.4C75.3,257.1,75.3,257.7,75.3,258.3z"/>
	<path class="st5" d="M93.3,265.6c2.7,2.2,0.3,5.1,1.3,7.5c0,0.1-0.6,0.7-1,0.7c-1,0-1.1-0.9-1.1-1.5C92.3,270,94.3,268,93.3,265.6z
		"/>
	<path class="st5" d="M543.4,130.3c0.6-0.2,0.4-2.4,1.1-0.9c1.1,2.1,3.1,4.1,2.6,6.9C544.2,135.3,543.9,132.7,543.4,130.3z"/>
	<path class="st5" d="M227.1,127.6c-1.2-0.5-2.6,0.3-3.7-0.8C224.8,126.2,225.5,129.6,227.1,127.6
		C227.2,127.6,227.1,127.6,227.1,127.6z"/>
	<path class="st5" d="M99.8,244.1c-0.1,0.6-0.2,1.1-1,1.2C99.1,244.9,99.5,244.5,99.8,244.1z"/>
	<path class="st5" d="M97.1,332.4c0.1,0.7-0.2,1-0.9,0.9c0,0,0.1,0.1,0.1,0.1C96.6,333,96.9,332.8,97.1,332.4
		C97.1,332.5,97.1,332.4,97.1,332.4z"/>
	<path class="st5" d="M96.2,333.3c0.2,0.7-0.1,1-0.8,0.9c0,0,0,0,0,0C95.4,333.6,95.8,333.4,96.2,333.3L96.2,333.3z"/>
	<path class="st5" d="M484.3,214.3c4.5-2.2,5.4-5.7,5-10.2c0.6,1.6,1.3,3.1,1.7,4.7c0.3,1.2,0.7,2.3,2.1,2.3c4.1,0.1,6,2.9,7.7,6.1
		c1,1.9,2.5,0.7,3.8,0.7c0.8,0,1.8-0.6,2,0.6c0.3,1.3-0.8,1.6-1.6,1.3c-5.4-2-5.4,3-7.7,5.5c-3.3,3.5-2.1,6.4,0,9.8
		c-2.2,1-2.9-0.2-3.5-1.8c-2.9-7.5-2.9-7.5-10.3-4.1c-1.1,0.5-2.2,1.5-3.9,0.4c3.5-1.5,6-4.3,10.2-3.8c2.4,0.3,5.3-0.8,6.8-3
		c1.3-1.8,3-4.1,1.5-6.3c-1.5-2.1-3.6-3.9-6.9-3.6C489.1,213.3,487.1,214.2,484.3,214.3z"/>
	<path class="st5" d="M525.8,225c3.1,2.7,4.8,1.6,6-1.2c0.8-2.1,2-1.4,3.9-1.1c5.8,0.8,6.4,7.3,12,8.5c-2.8,1.8-3.9-0.3-5.4-0.7
		c-4.5,7.7-7.7,9.3-11.8,5c3.8,1.2,6.4,0.6,8.2-2.6c2.4-4.3,1.5-7-3.4-8.4c-2.4-0.7-2.4,1.5-3.4,2.5c-1.1,1.1-1.7,3.2-3.3,3
		C526.8,229.7,526.1,227.8,525.8,225z"/>
	<path class="st5" d="M516.5,191.2c2.8,0.9,5.1,3.1,8.6,2.6c3.9-0.5,6-2.8,3.9-6.2c-2.1-3.4-0.6-3.6,2.1-3.3
		c2.5,0.3,3.6-1.5,5.2-3.6c-0.5,5.3,5.8,2.1,6.4,6.4c-2.8-0.3-5-3-8-1.7c-2,0.8-3.6,1.3-3.4,4.1c0.3,3.5-1.6,5.6-5.3,5.8
		c-2,0.1-4.8-0.5-2.3,3.8C519.2,197.4,518.3,193.9,516.5,191.2C516.6,191.2,516.5,191.2,516.5,191.2z"/>
	<path class="st5" d="M509.8,232.7c1.4,0.1,3,0.2,4.5,0.3c-3.3,2.2-7,0.1-11.1,2.6c2-4.3,8.9-4.5,5.2-10.3c2.9,0.2,5.3,0.2,7.7,0.4
		c4.4,0.4,2.6-3.2,3.6-5.4c1.8,0,2.9,1,4.8,2.5c-7.8-0.2-1.7,7.6-6.6,8.7c-0.9-0.9,2-3.5-1.1-3.8
		C513.1,227.5,509.1,226.7,509.8,232.7z"/>
	<path class="st5" d="M529.6,172.4c1.1,3.1,1.1,3.1-2.2,7.6c-0.6-1.7-0.1-3.1,0.9-4.5c1-1.3,0-2.5-0.6-3.5c-0.8-1.3-1.8-0.5-2.9-0.6
		c-5.4-0.2-6.1,6.6-11.1,7c0-0.4-0.3-1.4-0.1-1.4c3.1-1.1,3.8-5,6.4-6.2c4.2-1.8,8.8-0.4,13.4-0.2
		C532.6,172.6,530.9,171.4,529.6,172.4z"/>
	<path class="st5" d="M554.4,209.6c-1.6,2.8-4,1.3-5.1,2.8c-1.4,1.9,0.1,5,2.5,5.9c2.1,0.7,4.5,1.2,5.9,3.2c0.1,0.1-0.3,1-0.5,1
		c-2.3,0-4.3-1.2-5.8-2.6c-2.6-2.6-4.9-2.7-7.2,0.2c-0.8-1.1-0.3-1.8,0.3-2.1c4.1-2.5,3.6-5,0.1-7.5c-0.7-0.5-0.7-0.8-0.1-1.2
		c0.4-0.3,1.3-0.6,1.5-0.4C548.2,211.3,551,210.1,554.4,209.6z"/>
	<path class="st5" d="M515,244.8c2-2.9,8.1,0.8,7.4-5.4c-0.4-3.6-3.9-2.1-5.7-3.4c4.5-2.8,6.7-1.6,7,3.5c0,0.9,0.3,1.7,0.4,2.5
		c0.4,2.4-0.4,3.7-3.1,3.3C519,245.1,517.2,244.4,515,244.8z"/>
	<path class="st5" d="M535.8,252.8c4.1-0.1,7.7-1.8,11.1-4.2c3.7,4.3,6.6-4.3,10.4-0.8C550.5,251.5,543.5,253.7,535.8,252.8z"/>
	<path class="st5" d="M560.2,221.9c-1.2-3.2,1.1-4.6,1.7-6.6c0.7-2.3-2.3-3.1-2.3-5.9c4.3,4.9,5-0.2,7-2.1
		C566.1,212.7,563.5,217.1,560.2,221.9z"/>
	<path class="st5" d="M525.2,249.9c3.2-2.5,6.4-4.4,8.9-8c1.3,2.3,0.5,3.8-0.8,4.5c-3.5,1.8-2.9,3.6-0.4,5.7
		c0.2,0.2,0.1,0.7,0.2,1.5C529.9,253.2,529,248.5,525.2,249.9z"/>
	<path class="st5" d="M505.2,153.7c4.4-0.1,7.8,2.4,11.3,4.5c2.3,1.4,0,3.2-0.7,5.3c-0.8-5.3-4.7-6.5-8.8-7.5
		C506,155.7,505.7,154.5,505.2,153.7C505.3,153.6,505.2,153.7,505.2,153.7z"/>
	<path class="st5" d="M548.3,168.5c-2.3-2.8-6.8-2.7-7.8-7.6c3.6,3.1,7.2,1.4,11,1.4C548.7,163.6,546.9,165.1,548.3,168.5z"/>
	<path class="st5" d="M487.5,249.6c1.1-2-0.5-3.2-1-4.6c2.8-1,4.6,1.7,7,1.4c2.4-0.3,4.7-0.9,8.1-1.6
		C497.2,249.5,491.2,245.7,487.5,249.6z"/>
	<path class="st5" d="M573.2,225.5c1.7,10-0.3,12.4-8.7,11.1C571.4,236,573.4,231.7,573.2,225.5z"/>
	<path class="st5" d="M510.1,215.3c-0.2-2-0.3-4-0.5-6.5c3.9,5,6.8,0,11-0.3C517.8,212.7,512.5,211.8,510.1,215.3z"/>
	<path class="st5" d="M528.6,166.5c-0.5-3.5-2.8-6.9-0.7-8.6c2.3-1.9,6.2-1.5,9.4,0.2c-0.3,0.4-0.4,0.9-0.6,0.9
		c-2.4-0.1-5.4-1.1-7.2-0.1C527.3,160.2,530.9,163.3,528.6,166.5z"/>
	<path class="st5" d="M558.4,163.3c5.7,4.6,5.1,9.5-1.8,12.7c-0.7-0.7-0.4-1.6,0.2-1.8c4.4-1.7,4.5-4.5,2.4-8.1
		C558.7,165.3,558.7,164.2,558.4,163.3C558.5,163.2,558.4,163.3,558.4,163.3z"/>
	<path class="st5" d="M572.1,192.7c-3.1,0.7-6-0.5-8.8,0.8c-1,0.5-1.4-0.7-1.7-1.5c-0.4-1-0.3-2,0.3-2.9c0.8-1.1,1.4-0.3,2,0.3
		C566.2,191.5,569.7,190.1,572.1,192.7z"/>
	<path class="st5" d="M502.4,171.1c6.1-0.7,7.4,4.2,9.5,8.2C507.3,178.4,508.2,170.8,502.4,171.1z"/>
	<path class="st5" d="M500.8,163.3c0.1,0,0.3-0.2,0.4-0.1c3.7,2.8,7.5,5.2,12.6,2.5C509.4,170.7,503.3,169.2,500.8,163.3
		C500.9,163.2,500.8,163.3,500.8,163.3z"/>
	<path class="st5" d="M550,241c-1.1,3.8-6.5,0.6-6.5,5.4c0.4-3.1-1.4-4.5-3.6-5.8C543.1,242.7,546.3,243,550,241z"/>
	<path class="st5" d="M530.3,196.9c3.6,1.2,6.8,8.2,5.2,11.1C533.9,204.4,532.1,200.7,530.3,196.9z"/>
	<path class="st5" d="M503.5,253c0-2.6-0.1-4.5,1.2-6.5c1.2,3.1,4.6,3.6,6.4,6C508.5,254.6,506.2,246.8,503.5,253z"/>
	<path class="st5" d="M562.8,235c-1.7,3.4-0.7,6.7,0.5,10.5C559.4,242.2,559.3,237.6,562.8,235z"/>
	<path class="st5" d="M563.8,249.8c2.1,0.5,3.9-0.4,6.8-2.9c0,3.2-1,6-3.6,6.8C565,254.3,565.4,251.4,563.8,249.8z"/>
	<path class="st5" d="M526.7,221c0.5-4.2-1.5-6.9-5.4-9.1C526.7,212.6,528.3,215.4,526.7,221z"/>
	<path class="st5" d="M527.6,182.3c-3.4,2-6.1,0.6-8.8,0.6c-0.2,0-0.7-0.9-0.7-1.4c0-0.7,0.8-0.7,1.3-0.6
		C521.9,181.4,524.4,181.8,527.6,182.3z"/>
	<path class="st5" d="M487.8,224.9c-2.6-2-3.3-4-4-6c-0.3-0.8-0.6-1.8,0.5-2.1c0.8-0.3,1.3,0.5,1.6,1.1
		C486.8,219.8,487.7,221.7,487.8,224.9z"/>
	<path class="st5" d="M563.8,179.9c-0.1-3.6,3.6-6.2,2.8-10.2c-0.2-0.9,0.7,1.3,1.6,0.6c0,0-0.1-0.1-0.1-0.1
		C567.4,173.8,567.1,177.5,563.8,179.9L563.8,179.9z"/>
	<path class="st5" d="M477.8,233.1c4.6-0.3,4.7,2.9,6.7,5.2C480.7,238,480.5,234.8,477.8,233.1z"/>
	<path class="st5" d="M579.4,249.6c-2.1,2.1-4.2,4.2-8.3,2.8C574,250.2,576.9,250.5,579.4,249.6
		C579.5,249.7,579.4,249.6,579.4,249.6z"/>
	<path class="st5" d="M563.7,179.8c-0.7,1.3-1,3.9-3,0.8c-0.7-1-1.7-1.8-2.6-2.8C560.7,176.7,561.5,180.5,563.7,179.8
		C563.8,179.9,563.7,179.8,563.7,179.8z"/>
	<path class="st5" d="M588.9,247.9c2.9-0.3,5.2,0.2,6.2,4.1C592.2,251.2,590.7,249.4,588.9,247.9C589,247.9,588.9,247.9,588.9,247.9
		z"/>
	<path class="st5" d="M575.1,187.7c-1.6,0.9,0.7,2.8-1.2,3.8c-1.5-1.6-1.4-3.7-1.8-5.7C573.9,185.4,573.2,188.6,575.1,187.7
		C575.1,187.7,575.1,187.7,575.1,187.7z"/>
	<path class="st5" d="M491.9,238.3c-1.5,1.1-3.1,2.3-5.1,3.7C487.8,239,487.8,239,491.9,238.3z"/>
	<path class="st5" d="M510.1,182.7c-0.2,2.4-1.1,4.3-3.4,6.3C506.4,185.5,508.4,184.2,510.1,182.7z"/>
	<path class="st5" d="M575.1,201.6c-2.8-1.2-2.8-1.2-0.7-5.5C575.7,198,574.2,200,575.1,201.6C575,201.7,575.1,201.6,575.1,201.6z"
		/>
	<path class="st5" d="M582,215.6c0.8-1.2,0.5-3.4,2.7-3.6C584.2,213.5,583.8,215.1,582,215.6z"/>
	<path class="st5" d="M549.7,156.3c0.2,0.3,0.4,0.6,0.6,0.9c-0.2,0-0.5,0.2-0.6,0.1C549.5,156.9,549.4,156.5,549.7,156.3
		C549.8,156.2,549.7,156.3,549.7,156.3z"/>
	<path class="st5" d="M213.3,236.2c7.1,0.4,13.8,0.6,20.5,1.3c7.9,0.9,15.8,1.9,23.7-0.3c1.8-0.5,3.2-0.7,4.6,1
		c1.6,1.9,0.7,3.5-0.1,5.7c-0.4-6.2-3.9-4.6-7.3-3.7c-5.3,1.3-10.6,0.5-16,0c-7.2-0.8-14.4-1.3-21.5-1.9
		C215.8,238.2,214.3,238.2,213.3,236.2z"/>
	<path class="st5" d="M425,240.9c0.5,2.4,3.5,3.9,2.5,6.8c-0.4,0.3-1,1-1.3,1c-5-1.3-9.3-1.4-12.5,3.8c-0.9,1.4-2.8-0.3-2.2-2.4
		C413.2,243.9,415.7,239.7,425,240.9z M424.9,246.1c-2.1-4.7-5.3-4.8-8.9,0C419.1,246.1,421.9,246.1,424.9,246.1z"/>
	<path class="st5" d="M338.4,212.7c-1.8,0.3-4.3-3.4-5.3,1.1c-1.1-0.8-0.9-2.1-1.2-3.2c-0.4-1.4-2.2-3.2-0.7-4.4
		c1.8-1.5,1.9,1.3,3,1.9c0.2,0.1,0.7,0.4,0.7,0.3c3.1-4.8,4.3,0.1,6.3,1.2c1.6,0.9,1.1,2.2,0.8,3.4c-0.5,1.4-1.7,2.8-3.2,2.3
		c-1.9-0.6-0.3-1.3,0.4-1.8c0.3-0.4,0.9-1.1,0.8-1.1C339.4,211.6,338.9,212.2,338.4,212.7z"/>
	<path class="st5" d="M429.7,244.4c-3,0.1-2.2-3.9-4.7-4.4c-0.4-0.6-0.7-1.3-1.1-1.8c-1.4-1.5-2.9-3.1-1.7-5.3
		c0.8-1.3,6.2,0,7.4,1.6C432.2,237.7,431.2,241,429.7,244.4z M428.6,239.1c0.1,0.3,0.1,0.5,0.2,0.8c0.1-0.1,0.2-0.2,0.3-0.3
		C428.9,239.4,428.7,239.3,428.6,239.1c0-2.2-0.3-4.2-3.9-4.2C426,236.7,426.8,238.2,428.6,239.1z"/>
	<path class="st5" d="M214.6,232.2c4.2-2.8,8.1-2.2,11.7-2.4c2.5-0.2,5.1-0.3,7.6-0.3c1.2,0,2.6,0.1,2.6,1.6c0,1.4-1.4,1.2-2.4,1.2
		C228,232.2,221.9,232.2,214.6,232.2z"/>
	<path class="st5" d="M336,247.6c-5.2,0-9.9-2.6-15-3.2c-1-0.1-2.1-0.9-1.5-2.1c0.4-0.9,1.4-0.3,2.2,0c4.8,1.5,9.7,2.8,14.6,4.1
		C336.2,246.8,336.1,247.2,336,247.6z"/>
	<path class="st5" d="M269.9,222.5c-0.1-1.1-0.3-2.4,0.8-3c2.8-1.5,0.1-2.1-0.4-3.1c1.1-1.4,3.3-1.3,3.6-0.5
		c0.7,1.7,2.2,3.7,1.3,5.5C274.2,223.7,271.9,222.8,269.9,222.5z"/>
	<path class="st5" d="M202.8,249.1c-0.5-6.1,1.7-11.7,5.4-12.7C204.9,240.3,206.3,245.4,202.8,249.1z"/>
	<path class="st5" d="M329.9,216c-2.3,0.3-3.9-0.5-5.3-1.3c-1.2-0.7-1.1-2.1-0.4-3c0.5-0.6,2.1-0.6,2.1,0.3
		C326.4,214.3,329.2,213.8,329.9,216z"/>
</g>
</svg>
